<?xml version="1.0" encoding="UTF-8"?>
<svg version="1.1" xmlns="http://www.w3.org/2000/svg" width="267" height="280">
<path d="M0 0 C2.7373333 2.32843704 5.39082457 4.71293839 8.00390625 7.1796875 C9.87265788 9.04976369 9.87265788 9.04976369 12 10 C12 10.66 12 11.32 12 12 C12.66 12 13.32 12 14 12 C17.20845401 15.49079796 20.06592572 19.277518 23 23 C23.53109375 23.63164063 24.0621875 24.26328125 24.609375 24.9140625 C43.12858381 47.69893177 49.196788 78.89788704 46.7890625 107.50634766 C43.51524525 138.62621277 27.71170182 165.81203546 4.25 186.1875 C-20.47686777 206.07096068 -52.00542095 215.85668444 -83.66015625 212.57421875 C-115.33899721 208.58061131 -143.96221138 192.72161376 -163.7578125 167.5859375 C-173.81029424 154.25567794 -180.41857124 140.0071331 -185 124 C-185.51240234 122.30617187 -185.51240234 122.30617187 -186.03515625 120.578125 C-193.24921595 91.99031634 -187.19526391 61.14471905 -173.17578125 35.6875 C-171.54097409 33.04241876 -169.83226147 30.51149799 -168 28 C-167.44699219 27.23816406 -166.89398438 26.47632813 -166.32421875 25.69140625 C-146.40024807 -0.73648129 -118.59894311 -17.73989462 -85.80859375 -22.4609375 C-55.58951573 -26.2127837 -24.54334668 -18.05877582 0 0 Z M-143.8203125 28.98046875 C-162.24318016 50.30479721 -170.13525352 75.01600062 -169 103 C-168.25205044 110.70048066 -166.70088801 117.75670943 -164 125 C-162.515 124.505 -162.515 124.505 -161 124 C-159.76454508 121.19290479 -159.76454508 121.19290479 -158.75 117.75 C-154.73711619 105.76066206 -149.04700372 95.91729757 -140 87 C-139.42507812 86.41476563 -138.85015625 85.82953125 -138.2578125 85.2265625 C-128.70902928 76.22603477 -116.23643629 73.6606068 -103.5625 73.875 C-102.03592773 73.88853516 -102.03592773 73.88853516 -100.47851562 73.90234375 C-97.98542844 73.92575302 -95.49284141 73.958543 -93 74 C-91.28573669 70.24226698 -89.59652954 66.47446399 -87.92797852 62.69628906 C-87.35925755 61.4173487 -86.78423757 60.14118739 -86.20239258 58.86816406 C-82.80938893 51.43224581 -80.3345002 44.7290867 -80.15209961 36.4543457 C-79.94655991 33.13766732 -78.72357432 30.80080827 -77 28 C-76.505 26.515 -76.505 26.515 -76 25 C-73.5625 23.875 -73.5625 23.875 -71 23 C-70.01 22.505 -70.01 22.505 -69 22 C-62.72441149 21.45900099 -58.17208444 22.24995208 -53 26 C-48.47743576 31.6821961 -47.90406643 35.63331288 -48.2578125 42.625 C-48.24775361 45.04528763 -48.24775361 45.04528763 -46.60426331 46.38066101 C-44.74956769 48.25278568 -44.04431525 49.84203943 -43.07397461 52.28442383 C-42.55213844 53.57640434 -42.55213844 53.57640434 -42.01976013 54.89448547 C-41.65101273 55.82262558 -41.28226532 56.75076569 -40.90234375 57.70703125 C-40.09327997 59.67574036 -39.28268368 61.64382023 -38.47070312 63.61132812 C-37.20092171 66.70628253 -35.94095434 69.8037932 -34.70727539 72.91333008 C-33.50969216 75.91986025 -32.27213502 78.90729203 -31.02734375 81.89453125 C-30.67276596 82.81659866 -30.31818817 83.73866608 -29.9528656 84.68867493 C-27.29227936 90.95098031 -24.32754611 93.68830421 -18.26100159 96.76811218 C-14.90782912 98.59506018 -13.55673524 100.54810881 -12 104 C-10.68226633 108.89974211 -10.64916451 112.58303348 -12.68066406 117.25024414 C-14.53852264 122.56958586 -13.34689241 125.71994174 -11.046875 130.68359375 C-10.71206116 131.46517349 -10.37724731 132.24675323 -10.0322876 133.05201721 C-8.96482914 135.5264885 -7.85847086 137.98116908 -6.75 140.4375 C-6.01950191 142.11278643 -5.29160977 143.78921173 -4.56640625 145.46679688 C-1.41321527 152.79354636 -1.41321527 152.79354636 2 160 C2.66 160 3.32 160 4 160 C13.96808693 147.92248388 21.29431071 133.17382248 25 118 C25.22429687 117.12085938 25.44859375 116.24171875 25.6796875 115.3359375 C31.19144494 89.13621378 25.26208943 62.29476049 11 40 C8.80927488 36.86219284 6.47590793 33.91606933 4 31 C3.41992188 30.27554688 2.83984375 29.55109375 2.2421875 28.8046875 C-13.04389804 10.44859315 -35.65740007 0.18416192 -59 -3 C-62.75565286 -3.27586118 -66.48514531 -3.33493847 -70.25 -3.3125 C-71.25361572 -3.30686035 -72.25723145 -3.3012207 -73.29125977 -3.29541016 C-100.40618711 -2.85564979 -125.48140838 9.12752358 -143.8203125 28.98046875 Z M-65 35 C-65.99 35.99 -66.98 36.98 -68 38 C-67.34 39.32 -66.68 40.64 -66 42 C-64.68 41.67 -63.36 41.34 -62 41 C-61.67 39.68 -61.34 38.36 -61 37 C-62.32 36.34 -63.64 35.68 -65 35 Z M-65 56 C-72.89120085 73.83964141 -72.89120085 73.83964141 -80 92 C-73.03589012 94.79079619 -65.93219148 96.75853545 -58.6875 98.6875 C-57.50865234 99.00783203 -56.32980469 99.32816406 -55.11523438 99.65820312 C-49.13729057 101.37782264 -49.13729057 101.37782264 -43 102 C-43.63911537 98.12101706 -44.8025363 94.81418573 -46.36328125 91.2109375 C-47.07581055 89.54998047 -47.07581055 89.54998047 -47.80273438 87.85546875 C-48.30095703 86.70691406 -48.79917969 85.55835938 -49.3125 84.375 C-52.46286335 77.08952396 -55.52318281 69.82685544 -58.12963867 62.32666016 C-58.95303028 60.12556002 -59.90784753 58.07877716 -61 56 C-62.32 56 -63.64 56 -65 56 Z M-30 107 C-31.01111093 110.04913228 -31.01111093 110.04913228 -30 113 C-28.35 112.67 -26.7 112.34 -25 112 C-25.33 110.35 -25.66 108.7 -26 107 C-27.32 107 -28.64 107 -30 107 Z M-128.24609375 101.58203125 C-136.13412525 107.9004376 -142.12034127 117.35100722 -143.7890625 127.4375 C-144.92238313 141.20524694 -144.61770092 155.45920958 -136 167 C-122.69446562 181.61381914 -100.17939247 192.05173851 -80.46118164 193.14013672 C-61.83885923 193.76643753 -45.958331 192.16788923 -29 184 C-27.69869141 183.39671875 -27.69869141 183.39671875 -26.37109375 182.78125 C-22.72222724 180.95388828 -20.40929611 179.54572815 -17.9375 176.25 C-15.7902128 168.80607105 -17.04253715 162.48363893 -19.9296875 155.45703125 C-20.23891144 154.6849382 -20.54813538 153.91284515 -20.86672974 153.11735535 C-21.52256933 151.49807785 -22.18691605 149.88222202 -22.859375 148.26977539 C-23.87155641 145.82083168 -24.83068238 143.35517468 -25.7890625 140.88476562 C-30.16850773 129.95286238 -30.16850773 129.95286238 -39.21923828 122.78393555 C-42.3728925 121.8948764 -45.39504228 121.60632149 -48.64868164 121.29502869 C-52.37202402 120.82784703 -55.87775613 119.7895587 -59.46484375 118.71484375 C-60.6039193 118.3840255 -60.6039193 118.3840255 -61.76600647 118.04652405 C-64.15860797 117.35048583 -66.54813881 116.64457312 -68.9375 115.9375 C-71.35231181 115.22856222 -73.76771588 114.5217527 -76.18397522 113.81776428 C-77.67958818 113.38143419 -79.17428743 112.94195714 -80.66795349 112.49900818 C-84.27309127 111.38648575 -84.27309127 111.38648575 -88 111 C-88.7410498 112.78615723 -88.7410498 112.78615723 -89.49707031 114.60839844 C-91.33590806 119.03316893 -93.18771762 123.45241169 -95.04345703 127.87011719 C-95.84419873 129.78139786 -96.64143418 131.69415149 -97.43505859 133.60839844 C-98.57767623 136.36269328 -99.73287776 139.11141145 -100.890625 141.859375 C-101.24183411 142.71368103 -101.59304321 143.56798706 -101.95489502 144.44818115 C-103.74942381 148.67275895 -105.25693441 152.13389196 -109 155 C-115.06580078 156.78405905 -119.35756142 155.19558711 -125 153 C-122.74947027 145.8489994 -120.00053236 138.97646637 -117.10046387 132.06552124 C-115.75946384 128.86940193 -114.42882451 125.66897388 -113.09765625 122.46875 C-112.8333078 121.83382126 -112.56895935 121.19889252 -112.29660034 120.54472351 C-108.77225624 112.06677331 -105.3789099 103.53671648 -102 95 C-111.44976939 92.633301 -120.55325669 96.16359819 -128.24609375 101.58203125 Z M-163 126 C-162 128 -162 128 -162 128 Z " fill="#04B6F1" transform="translate(203,47)"/>
<path d="M0 0 C5.31796344 2.46976579 8.33264184 5.42498824 11.0859375 10.65625 C12.34184219 15.0519164 12.27709619 18.95777394 10.8359375 23.28125 C11.8259375 23.61125 12.8159375 23.94125 13.8359375 24.28125 C15.15112305 26.57177734 15.15112305 26.57177734 16.47265625 29.6171875 C16.9634668 30.73601318 17.45427734 31.85483887 17.95996094 33.00756836 C18.4759082 34.2116333 18.99185547 35.41569824 19.5234375 36.65625 C20.06299218 37.88664762 20.60368857 39.11654519 21.14550781 40.34594727 C23.58502198 45.90737541 25.94902779 51.48749831 28.12109375 57.16015625 C28.45858643 58.02398926 28.7960791 58.88782227 29.14379883 59.77783203 C29.75318861 61.3566553 30.33939063 62.94471053 30.8972168 64.54248047 C32.50368016 68.68987043 33.82916303 70.62982256 37.890625 72.60546875 C38.56593262 72.87061279 39.24124023 73.13575684 39.93701172 73.40893555 C44.13660807 75.338115 46.22656535 79.03480696 48.2109375 83.09375 C49.23235109 88.30295928 49.07541009 93.24851495 46.2734375 97.84375 C45.7990625 98.318125 45.3246875 98.7925 44.8359375 99.28125 C44.8359375 97.96125 44.8359375 96.64125 44.8359375 95.28125 C43.8459375 94.95125 42.8559375 94.62125 41.8359375 94.28125 C41.8359375 91.64125 41.8359375 89.00125 41.8359375 86.28125 C39.67241353 87.10005887 39.67241353 87.10005887 38.9609375 89.21875 C37.59012058 91.73191436 36.4428475 92.22219281 33.8359375 93.28125 C32.8459375 93.77625 32.8459375 93.77625 31.8359375 94.28125 C32.114375 95.704375 32.114375 95.704375 32.3984375 97.15625 C32.8359375 100.28125 32.8359375 100.28125 31.8359375 102.28125 C31.1759375 102.28125 30.5159375 102.28125 29.8359375 102.28125 C29.5059375 101.62125 29.1759375 100.96125 28.8359375 100.28125 C27.06074738 99.78107428 25.26444572 99.35453982 23.4609375 98.96875 C18.12067589 97.59039454 18.12067589 97.59039454 15.6484375 94.90625 C14.79186894 92.13887465 14.44773526 90.15394656 14.8359375 87.28125 C15.4959375 86.62125 16.1559375 85.96125 16.8359375 85.28125 C16.44783421 81.02111738 14.70322168 77.30148573 13.03515625 73.3984375 C12.75750931 72.74352325 12.47986237 72.08860901 12.19380188 71.41384888 C11.30813115 69.32605578 10.41630437 67.2409746 9.5234375 65.15625 C5.31178629 55.29697286 1.22904232 45.46056446 -2.1640625 35.28125 C-4.17914608 34.54801204 -4.17914608 34.54801204 -6.1640625 34.28125 C-6.5559375 35.51875 -6.9478125 36.75625 -7.3515625 38.03125 C-9.30287427 43.91332922 -11.72652429 49.58723782 -14.1640625 55.28125 C-15.1540625 54.95125 -16.1440625 54.62125 -17.1640625 54.28125 C-16.4140625 46.53125 -16.4140625 46.53125 -14.1640625 44.28125 C-13.1740625 44.28125 -12.1840625 44.28125 -11.1640625 44.28125 C-11.1640625 43.29125 -11.1640625 42.30125 -11.1640625 41.28125 C-11.8240625 40.95125 -12.4840625 40.62125 -13.1640625 40.28125 C-12.205 39.5078125 -12.205 39.5078125 -11.2265625 38.71875 C-8.60614569 35.62189377 -8.47016433 33.26057377 -8.1640625 29.28125 C-8.8240625 29.28125 -9.4840625 29.28125 -10.1640625 29.28125 C-10.44977679 20.70982143 -10.44977679 20.70982143 -8.1640625 17.28125 C-7.8340625 17.94125 -7.5040625 18.60125 -7.1640625 19.28125 C-5.8440625 18.95125 -4.5240625 18.62125 -3.1640625 18.28125 C-3.1640625 17.29125 -3.1640625 16.30125 -3.1640625 15.28125 C-4.8140625 14.95125 -6.4640625 14.62125 -8.1640625 14.28125 C-8.4940625 14.94125 -8.8240625 15.60125 -9.1640625 16.28125 C-9.1640625 15.29125 -9.1640625 14.30125 -9.1640625 13.28125 C-6.3515625 12.59375 -6.3515625 12.59375 -3.1640625 12.28125 C-1.2890625 13.71875 -1.2890625 13.71875 -0.1640625 15.28125 C-0.6590625 16.395 -1.1540625 17.50875 -1.6640625 18.65625 C-3.2915131 21.93540749 -3.2915131 21.93540749 -3.1640625 24.28125 C-2.1740625 24.61125 -1.1840625 24.94125 -0.1640625 25.28125 C-1.1540625 26.60125 -2.1440625 27.92125 -3.1640625 29.28125 C-0.67341362 29.96832555 1.21480042 30.28125 3.8359375 30.28125 C3.7740625 29.4975 3.7121875 28.71375 3.6484375 27.90625 C3.74125 26.606875 3.74125 26.606875 3.8359375 25.28125 C4.8259375 24.62125 5.8159375 23.96125 6.8359375 23.28125 C7.85978894 20.03905377 8.1943828 17.45095571 6.8359375 14.28125 C5.8459375 13.95125 4.8559375 13.62125 3.8359375 13.28125 C2.8359375 11.61458333 1.8359375 9.94791667 0.8359375 8.28125 C-0.1540625 7.95125 -1.1440625 7.62125 -2.1640625 7.28125 C-2.1640625 6.62125 -2.1640625 5.96125 -2.1640625 5.28125 C-0.8440625 5.28125 0.4759375 5.28125 1.8359375 5.28125 C1.8359375 4.29125 1.8359375 3.30125 1.8359375 2.28125 C-0.05981501 2.25403824 -1.95568229 2.23475864 -3.8515625 2.21875 C-4.90730469 2.20714844 -5.96304688 2.19554688 -7.05078125 2.18359375 C-9.88816512 2.27259575 -12.4079544 2.63185162 -15.1640625 3.28125 C-10.79730245 -1.28399914 -6.00118482 -1.9931733 0 0 Z M28.8359375 85.28125 C27.82482657 88.33038228 27.82482657 88.33038228 28.8359375 91.28125 C30.4859375 90.95125 32.1359375 90.62125 33.8359375 90.28125 C33.5059375 88.63125 33.1759375 86.98125 32.8359375 85.28125 C31.5159375 85.28125 30.1959375 85.28125 28.8359375 85.28125 Z " fill="#04A6F3" transform="translate(144.1640625,68.71875)"/>
<path d="M0 0 C10.33444616 1.87899021 18.86169905 6.06508227 28 11 C29.08925781 11.56976563 30.17851562 12.13953125 31.30078125 12.7265625 C38.01021815 16.39891318 43.33728883 20.70041335 48.8203125 25.9609375 C50.82721381 28.03212649 50.82721381 28.03212649 53 29 C53 29.66 53 30.32 53 31 C53.66 31 54.32 31 55 31 C56.7265625 32.75 56.7265625 32.75 58.625 35 C59.25664062 35.7425 59.88828125 36.485 60.5390625 37.25 C61.26222656 38.11625 61.26222656 38.11625 62 39 C61.34 40.65 60.68 42.3 60 44 C58.0625 43.25 58.0625 43.25 56 42 C55.25 39.875 55.25 39.875 55 38 C55.66 38 56.32 38 57 38 C56.525625 37.525625 56.05125 37.05125 55.5625 36.5625 C54.70833333 35.70833333 53.85416667 34.85416667 53 34 C52.01 34.66 51.02 35.32 50 36 C49.01 35.67 48.02 35.34 47 35 C47 35.99 47 36.98 47 38 C46.21625 38.12375 45.4325 38.2475 44.625 38.375 C41.85942178 38.79117993 41.85942178 38.79117993 40 41 C39.01 40.505 39.01 40.505 38 40 C38 39.34 38 38.68 38 38 C37.01 38.33 36.02 38.66 35 39 C34.01 38.505 34.01 38.505 33 38 C33 37.01 33 36.02 33 35 C32.1028125 34.814375 32.1028125 34.814375 31.1875 34.625 C29 34 29 34 26 32 C26 31.34 26 30.68 26 30 C25.154375 29.7525 24.30875 29.505 23.4375 29.25 C19.61572526 27.86026373 16.48131937 26.08879162 13 24 C13.53625 23.7525 14.0725 23.505 14.625 23.25 C17.56424252 21.70303025 20.25754408 19.86985631 23 18 C22.67 17.01 22.34 16.02 22 15 C22.66 14.34 23.32 13.68 24 13 C23.32453125 12.90203125 22.6490625 12.8040625 21.953125 12.703125 C13.4797156 11.28272689 13.4797156 11.28272689 10 7 C7.86690808 5.76487921 7.86690808 5.76487921 6 5 C6 4.34 6 3.68 6 3 C5.01 3.33 4.02 3.66 3 4 C3 3.34 3 2.68 3 2 C2.01 1.67 1.02 1.34 0 1 C0 0.67 0 0.34 0 0 Z " fill="#089EF4" transform="translate(162,28)"/>
<path d="M0 0 C0.33 0.99 0.66 1.98 1 3 C-0.0390625 4.578125 -0.0390625 4.578125 -1.625 6.25 C-7.333019 11.95919935 -7.333019 11.95919935 -10 19 C-10.66 19 -11.32 19 -12 19 C-13.23921302 21.97411124 -14.30058404 24.85262818 -15 28 C-14.34 28.33 -13.68 28.66 -13 29 C-13.4125 29.639375 -13.825 30.27875 -14.25 30.9375 C-17.65300603 36.89276056 -20.67497888 43.24239226 -22 50 C-21.26878594 52.3892395 -21.26878594 52.3892395 -20 54 C-20.515625 54.4125 -21.03125 54.825 -21.5625 55.25 C-22.036875 55.8275 -22.51125 56.405 -23 57 C-22.835 57.66 -22.67 58.32 -22.5 59 C-22.335 59.66 -22.17 60.32 -22 61 C-23.25 62.75 -23.25 62.75 -25 64 C-25.99 64 -26.98 64 -28 64 C-27.6208758 86.23636739 -26.7166169 106.2090898 -18 127 C-17.5978125 128.02996094 -17.195625 129.05992187 -16.78125 130.12109375 C-14.75626237 134.9372122 -14.75626237 134.9372122 -10.91015625 138.26953125 C-8.48421656 139.26024453 -8.48421656 139.26024453 -5 140 C-5.99 140.99 -5.99 140.99 -7 142 C-6.34 142.598125 -5.68 143.19625 -5 143.8125 C-3 146 -3 146 -3 149 C-2.01 149.33 -1.02 149.66 0 150 C0 150.66 0 151.32 0 152 C0.33 152.99 0.66 153.98 1 155 C1.66 155.33 2.32 155.66 3 156 C3 157.32 3 158.64 3 160 C3.66 160 4.32 160 5 160 C6 161.33333333 7 162.66666667 8 164 C8.66 164 9.32 164 10 164 C10.33 163.34 10.66 162.68 11 162 C12.98 162.33 14.96 162.66 17 163 C16.505 165.97 16.505 165.97 16 169 C16.969375 169.144375 17.93875 169.28875 18.9375 169.4375 C22 170 22 170 23 171 C23.66 171 24.32 171 25 171 C25 173.31 25 175.62 25 178 C25.763125 178.268125 26.52625 178.53625 27.3125 178.8125 C29.87380884 179.94424112 31.19692938 180.91223401 33 183 C22.61407741 183 10.05446314 169.25340994 3 162.375 C-11.92360367 147.38710124 -21.22463923 129.17863275 -27 109 C-27.34160156 107.87078125 -27.68320312 106.7415625 -28.03515625 105.578125 C-35.24921595 76.99031634 -29.19526391 46.14471905 -15.17578125 20.6875 C-11.53995564 14.80481586 -7.31530189 9.39412736 -3 4 C-1.99521298 2.67027039 -0.99376311 1.33798829 0 0 Z " fill="#24D6E7" transform="translate(45,62)"/>
<path d="M0 0 C5.31796344 2.46976579 8.33264184 5.42498824 11.0859375 10.65625 C12.34184219 15.0519164 12.27709619 18.95777394 10.8359375 23.28125 C11.8259375 23.61125 12.8159375 23.94125 13.8359375 24.28125 C16.36371105 27.94216341 16.95103869 29.59064283 16.2109375 34.03125 C14.8359375 37.28125 14.8359375 37.28125 11.8359375 39.28125 C11.5471875 39.94125 11.2584375 40.60125 10.9609375 41.28125 C9.43365374 43.99642114 7.69580416 44.2546312 4.8359375 45.28125 C4.5059375 45.94125 4.1759375 46.60125 3.8359375 47.28125 C-0.22224876 44.57579249 -0.17735959 42.07830615 -1.22265625 37.49609375 C-1.68865234 36.39974609 -1.68865234 36.39974609 -2.1640625 35.28125 C-4.18624898 34.39555194 -4.18624898 34.39555194 -6.1640625 34.28125 C-6.5559375 35.51875 -6.9478125 36.75625 -7.3515625 38.03125 C-9.30287427 43.91332922 -11.72652429 49.58723782 -14.1640625 55.28125 C-15.1540625 54.95125 -16.1440625 54.62125 -17.1640625 54.28125 C-16.4140625 46.53125 -16.4140625 46.53125 -14.1640625 44.28125 C-13.1740625 44.28125 -12.1840625 44.28125 -11.1640625 44.28125 C-11.1640625 43.29125 -11.1640625 42.30125 -11.1640625 41.28125 C-11.8240625 40.95125 -12.4840625 40.62125 -13.1640625 40.28125 C-12.205 39.5078125 -12.205 39.5078125 -11.2265625 38.71875 C-8.60614569 35.62189377 -8.47016433 33.26057377 -8.1640625 29.28125 C-8.8240625 29.28125 -9.4840625 29.28125 -10.1640625 29.28125 C-10.44977679 20.70982143 -10.44977679 20.70982143 -8.1640625 17.28125 C-7.8340625 17.94125 -7.5040625 18.60125 -7.1640625 19.28125 C-5.8440625 18.95125 -4.5240625 18.62125 -3.1640625 18.28125 C-3.1640625 17.29125 -3.1640625 16.30125 -3.1640625 15.28125 C-4.8140625 14.95125 -6.4640625 14.62125 -8.1640625 14.28125 C-8.4940625 14.94125 -8.8240625 15.60125 -9.1640625 16.28125 C-9.1640625 15.29125 -9.1640625 14.30125 -9.1640625 13.28125 C-6.3515625 12.59375 -6.3515625 12.59375 -3.1640625 12.28125 C-1.2890625 13.71875 -1.2890625 13.71875 -0.1640625 15.28125 C-0.6590625 16.395 -1.1540625 17.50875 -1.6640625 18.65625 C-3.2915131 21.93540749 -3.2915131 21.93540749 -3.1640625 24.28125 C-2.1740625 24.61125 -1.1840625 24.94125 -0.1640625 25.28125 C-1.1540625 26.60125 -2.1440625 27.92125 -3.1640625 29.28125 C-0.67341362 29.96832555 1.21480042 30.28125 3.8359375 30.28125 C3.7740625 29.4975 3.7121875 28.71375 3.6484375 27.90625 C3.74125 26.606875 3.74125 26.606875 3.8359375 25.28125 C4.8259375 24.62125 5.8159375 23.96125 6.8359375 23.28125 C7.85978894 20.03905377 8.1943828 17.45095571 6.8359375 14.28125 C5.8459375 13.95125 4.8559375 13.62125 3.8359375 13.28125 C2.8359375 11.61458333 1.8359375 9.94791667 0.8359375 8.28125 C-0.1540625 7.95125 -1.1440625 7.62125 -2.1640625 7.28125 C-2.1640625 6.62125 -2.1640625 5.96125 -2.1640625 5.28125 C-0.8440625 5.28125 0.4759375 5.28125 1.8359375 5.28125 C1.8359375 4.29125 1.8359375 3.30125 1.8359375 2.28125 C-0.05981501 2.25403824 -1.95568229 2.23475864 -3.8515625 2.21875 C-4.90730469 2.20714844 -5.96304688 2.19554688 -7.05078125 2.18359375 C-9.88816512 2.27259575 -12.4079544 2.63185162 -15.1640625 3.28125 C-10.79730245 -1.28399914 -6.00118482 -1.9931733 0 0 Z " fill="#02A2F5" transform="translate(144.1640625,68.71875)"/>
<path d="M0 0 C0 3.52896477 -0.14403822 4.77379313 -1.4375 7.8125 C-2.51193515 10.51607867 -3.08114308 12.56800159 -3.5 15.5 C-3.92327075 18.46289526 -4.48956361 20.36711722 -5.625 23.0625 C-7.10624448 26.73712572 -6.90540931 29.10673999 -6 33 C-6.33 33.99 -6.66 34.98 -7 36 C-7.99 36 -8.98 36 -10 36 C-10.12375 36.639375 -10.2475 37.27875 -10.375 37.9375 C-10.684375 38.9584375 -10.684375 38.9584375 -11 40 C-11.99 40.495 -11.99 40.495 -13 41 C-13.6061555 43.79729537 -13.95898131 46.59746279 -14.33984375 49.43359375 C-15 52 -15 52 -18 54 C-18.72382467 56.05925139 -18.72382467 56.05925139 -19 58 C-15.0611468 59.14883218 -11.06226138 59.50873058 -7 60 C-5.51221073 56.77473823 -4.03631893 53.5441667 -2.5625 50.3125 C-2.14162109 49.40048828 -1.72074219 48.48847656 -1.28710938 47.54882812 C-0.88427734 46.66259766 -0.48144531 45.77636719 -0.06640625 44.86328125 C0.30540771 44.05157471 0.67722168 43.23986816 1.06030273 42.40356445 C2.02183049 39.9441618 2.56105395 37.59928882 3 35 C4.10205078 36.69506836 4.10205078 36.69506836 5 39 C4.46435547 41.33422852 4.46435547 41.33422852 3.3671875 43.87890625 C2.97273438 44.79994141 2.57828125 45.72097656 2.171875 46.66992188 C1.74390625 47.62447266 1.3159375 48.57902344 0.875 49.5625 C0.47023437 50.52091797 0.06546875 51.47933594 -0.3515625 52.46679688 C-3.83965094 60.44356324 -3.83965094 60.44356324 -8 63 C-13.72393699 64.57127682 -18.79831842 63.81292652 -24 61 C-25.38233745 56.85298766 -23.75029771 54.32016592 -22.09765625 50.5 C-21.78449463 49.75550598 -21.47133301 49.01101196 -21.14868164 48.24395752 C-20.1288914 45.82541282 -19.0958455 43.41278016 -18.0625 41 C-17.36622087 39.35551777 -16.6708263 37.71066073 -15.97631836 36.06542969 C-14.61162385 32.83638494 -13.24195424 29.60953483 -11.8671875 26.38476562 C-9.92276322 21.82307362 -7.99965971 17.25260083 -6.08178711 12.6796875 C-4.72714032 9.4505989 -3.36412726 6.22509319 -2 3 C-8.23711767 0.97439403 -15.40593546 3.01377441 -21.1875 5.75 C-25.42912312 8.0684027 -29.22881902 10.991079 -33 14 C-33.3125 11.8125 -33.3125 11.8125 -33 9 C-29.5423201 4.4497199 -25.86175612 2.88395075 -20.4375 1.6875 C-19.73947266 1.52217773 -19.04144531 1.35685547 -18.32226562 1.18652344 C-12.19905871 -0.16393727 -6.25902795 -0.42675191 0 0 Z " fill="#11C7E9" transform="translate(102,140)"/>
<path d="M0 0 C0 0.99 0 1.98 0 3 C-1.32 3 -2.64 3 -4 3 C-4 3.66 -4 4.32 -4 5 C-3.401875 5.061875 -2.80375 5.12375 -2.1875 5.1875 C0.88791343 6.32979642 1.45477272 8.17828061 3 11 C3.53625 11.515625 4.0725 12.03125 4.625 12.5625 C6.36126275 14.37768378 6.70741368 15.5130163 7 18 C6.5625 20.75 6.5625 20.75 6 23 C5.01 23 4.02 23 3 23 C2.67 24.65 2.34 26.3 2 28 C-1.96 28.495 -1.96 28.495 -6 29 C-5.42655063 26.13275314 -5.1385485 25.1385485 -3 23 C-3.99 23 -4.98 23 -6 23 C-6 22.34 -6 21.68 -6 21 C-6.66 20.67 -7.32 20.34 -8 20 C-7.01 19.67 -6.02 19.34 -5 19 C-3.77479736 15.99152582 -3.77479736 15.99152582 -3 13 C-3.66 12.34 -4.32 11.68 -5 11 C-8.04638827 10.92424122 -8.04638827 10.92424122 -11 12 C-12.45291273 14.46255685 -12.45291273 14.46255685 -13 17 C-13.33 16.34 -13.66 15.68 -14 15 C-15.9254644 13.8509288 -15.9254644 13.8509288 -18 14 C-17.67 14.99 -17.34 15.98 -17 17 C-17.66 17.66 -18.32 18.32 -19 19 C-19.99 18.67 -20.98 18.34 -22 18 C-21.65450592 7.16876057 -21.65450592 7.16876057 -19.25 2.875 C-14.22882116 -1.3093157 -6.11256203 -3.05628102 0 0 Z " fill="#039AF2" transform="translate(146,71)"/>
<path d="M0 0 C2.54242904 0.62201946 5.08391875 1.24751759 7.625 1.875 C8.33785156 2.04902344 9.05070313 2.22304687 9.78515625 2.40234375 C11.86190341 2.91676736 13.93106346 3.45511578 16 4 C17.71316406 4.43699219 17.71316406 4.43699219 19.4609375 4.8828125 C22 6 22 6 22.87890625 7.84765625 C23.00351054 10.06239706 23.02586342 12.22073066 22.9375 14.4375 C22.88309082 18.11918794 23.41627573 20.63458592 25 24 C25 24.99 25 25.98 25 27 C12.18412785 25.9177708 12.18412785 25.9177708 7.4375 21.75 C3.02457396 15.99027185 0 7.15124839 0 0 Z " fill="#044B6D" transform="translate(136,143)"/>
<path d="M0 0 C0.99 0.33 1.98 0.66 3 1 C3.19164339 5.59944146 3.2040069 9.79597574 1.9375 14.25 C0.72708873 17.81553758 0.72708873 17.81553758 1.6875 20.625 C1.8421875 21.800625 1.8421875 21.800625 2 23 C0.8038743 24.51940291 -0.40362931 26.03519264 -1.72265625 27.44921875 C-3.59580534 29.72334776 -4.2337909 32.19056664 -5 35 C-5.33 35.66 -5.66 36.32 -6 37 C-5.835 37.598125 -5.67 38.19625 -5.5 38.8125 C-4.87997116 41.52512618 -5.21180907 43.34881232 -6 46 C-6.99 46.495 -6.99 46.495 -8 47 C-8 46.34 -8 45.68 -8 45 C-10.79652401 46.06075049 -11.83898103 46.70863235 -13.3125 49.375 C-15.6769128 53.05297547 -18.07058671 54.10546145 -22 56 C-22.99 56 -23.98 56 -25 56 C-26.10688344 53.50117273 -27.21055111 51.00100271 -28.3125 48.5 C-28.62123047 47.80390625 -28.92996094 47.1078125 -29.24804688 46.390625 C-30.18199415 44.26712383 -31.09576372 42.13631293 -32 40 C-32.30856934 39.28199219 -32.61713867 38.56398437 -32.93505859 37.82421875 C-34.45919349 34.0837124 -35.2542948 31.85281898 -34 28 C-32.32760079 31.95593578 -30.66305618 35.9151284 -29 39.875 C-28.28457031 41.56689453 -28.28457031 41.56689453 -27.5546875 43.29296875 C-27.10351562 44.36933594 -26.65234375 45.44570312 -26.1875 46.5546875 C-25.76855469 47.54968262 -25.34960938 48.54467773 -24.91796875 49.56982422 C-24 52 -24 52 -24 54 C-23.34 54 -22.68 54 -22 54 C-21.75636719 53.46890625 -21.51273438 52.9378125 -21.26171875 52.390625 C-19.9845796 49.9707824 -18.51412705 47.74613769 -16.97900391 45.48388672 C-7.65464214 31.62419285 -1.60807484 16.72397837 0 0 Z " fill="#0FA4EE" transform="translate(229,153)"/>
<path d="M0 0 C2.43196698 2.43196698 3.10087247 4.52658465 4.3203125 7.7421875 C4.7740625 8.89074219 5.2278125 10.03929688 5.6953125 11.22265625 C6.64269682 13.64288668 7.57264959 16.07001859 8.484375 18.50390625 C11.24345395 25.91024546 11.24345395 25.91024546 17.1875 30.640625 C17.84363281 30.86008789 18.49976563 31.07955078 19.17578125 31.30566406 C23.40398515 32.9150072 25.46301951 36.90163081 27.375 40.8125 C28.39641359 46.02170928 28.23947259 50.96726495 25.4375 55.5625 C24.963125 56.036875 24.48875 56.51125 24 57 C24 55.68 24 54.36 24 53 C22.515 52.505 22.515 52.505 21 52 C21 49.36 21 46.72 21 44 C20.13375 43.814375 20.13375 43.814375 19.25 43.625 C16.83013817 42.95281616 15.07661544 42.43141188 13 41 C12.4609375 38.43359375 12.4609375 38.43359375 12.375 35.4375 C12.31557884 32.52348029 12.31557884 32.52348029 12 30 C11.34 29.67 10.68 29.34 10 29 C9.2993442 27.01165247 8.64268447 25.00783493 8 23 C7.36710759 21.4596666 6.71729016 19.92622594 6.0546875 18.3984375 C5.70019531 17.57859375 5.34570312 16.75875 4.98046875 15.9140625 C4.23938347 14.21192316 3.49454746 12.51141223 2.74609375 10.8125 C2.39417969 9.99523437 2.04226562 9.17796875 1.6796875 8.3359375 C1.35726074 7.59907715 1.03483398 6.8622168 0.70263672 6.10302734 C0 4 0 4 0 0 Z " fill="#018ED7" transform="translate(165,111)"/>
<path d="M0 0 C3.2985294 0.58853429 3.81117376 0.73564326 5.875 3.625 C7.29362693 7.8808808 6.72848567 9.91448843 5 14 C4.01 14.66 3.02 15.32 2 16 C1.566875 16.99 1.566875 16.99 1.125 18 C-0.40228376 20.71517114 -2.14013334 20.9733812 -5 22 C-5.33 22.66 -5.66 23.32 -6 24 C-9.48094605 21.6793693 -9.5962077 20.889061 -10.625 17 C-11.57394885 13.40908089 -11.57394885 13.40908089 -13 10 C-11.783125 9.649375 -10.56625 9.29875 -9.3125 8.9375 C-4.39084718 7.13668209 -2.66118151 4.40758188 0 0 Z " fill="#044D73" transform="translate(154,92)"/>
<path d="M0 0 C0.99 0.33 1.98 0.66 3 1 C-24.6946905 19.81873422 -55.62284944 28.29290421 -89.0234375 22.12109375 C-98.94655885 20.04095494 -110.98565432 17.45037784 -119 11 C-114.43462098 11.61750567 -110.4335824 12.8205821 -106.125 14.4375 C-98.09317239 17.35587087 -90.87329386 19.17020696 -82.3203125 19.75390625 C-80 20 -80 20 -78 21 C-52.85985347 23.18581171 -22.14333636 18.32197835 -2.19921875 1.66015625 C-1.11060547 0.83837891 -1.11060547 0.83837891 0 0 Z " fill="#2FD0E8" transform="translate(199,236)"/>
<path d="M0 0 C0.33 0.99 0.66 1.98 1 3 C-0.0390625 4.578125 -0.0390625 4.578125 -1.625 6.25 C-7.333019 11.95919935 -7.333019 11.95919935 -10 19 C-10.66 19 -11.32 19 -12 19 C-13.23921302 21.97411124 -14.30058404 24.85262818 -15 28 C-14.34 28.33 -13.68 28.66 -13 29 C-13.4125 29.639375 -13.825 30.27875 -14.25 30.9375 C-17.65300603 36.89276056 -20.67497888 43.24239226 -22 50 C-21.26878594 52.3892395 -21.26878594 52.3892395 -20 54 C-20.515625 54.4125 -21.03125 54.825 -21.5625 55.25 C-22.036875 55.8275 -22.51125 56.405 -23 57 C-22.835 57.66 -22.67 58.32 -22.5 59 C-22.335 59.66 -22.17 60.32 -22 61 C-23.3125 62.75 -23.3125 62.75 -25 64 C-25.66 64 -26.32 64 -27 64 C-28.70478222 39.41325199 -14.89341177 18.4118095 0 0 Z " fill="#18CEE8" transform="translate(45,62)"/>
<path d="M0 0 C2.15852014 5.71935289 -1.44643663 11.35716317 -3.5625 16.6875 C-3.99369141 17.85345703 -4.42488281 19.01941406 -4.86914062 20.22070312 C-5.30548828 21.32736328 -5.74183594 22.43402344 -6.19140625 23.57421875 C-6.58529541 24.59088623 -6.97918457 25.60755371 -7.38500977 26.6550293 C-9 29 -9 29 -12.00366211 29.84692383 C-15 30 -15 30 -17.75 29.875 C-18.4925 29.91625 -19.235 29.9575 -20 30 C-20.66 30.99 -21.32 31.98 -22 33 C-26.75 32.25 -26.75 32.25 -29 30 C-38.59880428 29.37938765 -47.66563124 34.08530609 -54.83984375 40.01953125 C-61.28933099 45.93253311 -66.37914186 52.59612502 -71 60 C-71.33 59.34 -71.66 58.68 -72 58 C-65.39420011 44.0242965 -54.07115761 34.61210123 -40 29 C-34.45546332 27.05908868 -29.60728748 26.72173251 -23.8125 26.8125 C-23.01908203 26.81314453 -22.22566406 26.81378906 -21.40820312 26.81445312 C-17.74862306 26.84210738 -14.54170606 27.00641939 -11 28 C-10.83201904 27.46705322 -10.66403809 26.93410645 -10.4909668 26.38500977 C-8.56540752 20.42783089 -6.27988634 14.68878571 -3.8125 8.9375 C-3.44447266 8.07189453 -3.07644531 7.20628906 -2.69726562 6.31445312 C-1.80127408 4.20829117 -0.90215345 2.10352808 0 0 Z " fill="#26C1E6" transform="translate(121,93)"/>
<path d="M0 0 C0 3.59041602 -0.21781342 5.03834543 -1.50390625 8.203125 C-1.99129272 9.41391724 -1.99129272 9.41391724 -2.48852539 10.64916992 C-3.02014282 11.93658081 -3.02014282 11.93658081 -3.5625 13.25 C-3.92529053 14.14243408 -4.28808105 15.03486816 -4.66186523 15.9543457 C-7.15279011 22.04502373 -9.75040476 28.08440611 -12.40869141 34.10351562 C-14.62902717 39.13406358 -16.80822986 44.18018015 -18.9375 49.25 C-19.24437744 49.96567139 -19.55125488 50.68134277 -19.86743164 51.41870117 C-21.31483336 54.8935495 -22 57.17565087 -22 61 C-22.99 60.67 -23.98 60.34 -25 60 C-22.53852411 52.18712431 -19.47230629 44.67757339 -16.3125 37.125 C-15.77743259 35.83969811 -15.24260384 34.55429685 -14.70800781 33.26879883 C-10.50289927 23.16627032 -6.26660106 13.07670781 -2 3 C-9.11776584 1.02064249 -16.71137386 3.30342174 -23.07421875 6.78125 C-26.54341803 8.97676759 -29.79270166 11.44098537 -33 14 C-33.3125 11.8125 -33.3125 11.8125 -33 9 C-29.5423201 4.4497199 -25.86175612 2.88395075 -20.4375 1.6875 C-19.73947266 1.52217773 -19.04144531 1.35685547 -18.32226562 1.18652344 C-12.19905871 -0.16393727 -6.25902795 -0.42675191 0 0 Z " fill="#2FCBE5" transform="translate(102,140)"/>
<path d="M0 0 C0.66 0.33 1.32 0.66 2 1 C1.67 1.66 1.34 2.32 1 3 C4.51033129 4.68630119 4.51033129 4.68630119 8.3125 4.625 C8.869375 4.41875 9.42625 4.2125 10 4 C9.27425781 4.7115625 8.54851562 5.423125 7.80078125 6.15625 C-3.64220192 17.774788 -12.03828414 30.51811392 -17.7734375 45.78515625 C-18.73078689 48.29438729 -19.73821298 50.63562339 -21 53 C-21.38540278 48.47151736 -21.07788457 45.84318984 -18.9375 41.8125 C-16.17561301 36.21119937 -17.06465475 31.00857655 -18 25 C-17.34 24.67 -16.68 24.34 -16 24 C-16 24.66 -16 25.32 -16 26 C-13.69 25.01 -11.38 24.02 -9 23 C-9.33 21.35 -9.66 19.7 -10 18 C-9.05125 17.79375 -8.1025 17.5875 -7.125 17.375 C-3.7104212 16.30479818 -3.7104212 16.30479818 -2.75 12.9375 C-2.5025 11.968125 -2.255 10.99875 -2 10 C-1.34 9.67 -0.68 9.34 0 9 C0.33 8.01 0.66 7.02 1 6 C0.34 6 -0.32 6 -1 6 C-0.67 4.02 -0.34 2.04 0 0 Z " fill="#1ECBEA" transform="translate(58,64)"/>
<path d="M0 0 C9.74350195 16.309775 6.16939794 44.44484194 2 62 C0.58653422 67.09218498 -1.1306733 72.05699777 -3 77 C-3.33 77 -3.66 77 -4 77 C-3.34938223 71.81538967 -2.28047765 66.87362844 -1 61.8125 C0.70120883 54.88712448 1.72468567 48.14440685 2 41 C2.66 41 3.32 41 4 41 C3.67 39.35 3.34 37.7 3 36 C2.01 36.495 2.01 36.495 1 37 C1.02320313 35.87980469 1.04640625 34.75960937 1.0703125 33.60546875 C1.08907237 32.13281916 1.10727234 30.66016237 1.125 29.1875 C1.14175781 28.44951172 1.15851563 27.71152344 1.17578125 26.95117188 C1.21074628 23.08753574 1.19397555 21.29096332 -1 18 C-0.34 18 0.32 18 1 18 C0.55296014 13.52116304 0.55296014 13.52116304 -2 10 C-2.66 10 -3.32 10 -4 10 C-4.33 9.01 -4.66 8.02 -5 7 C-4.01 7 -3.02 7 -2 7 C-1.34 4.69 -0.68 2.38 0 0 Z " fill="#2197D8" transform="translate(245,109)"/>
<path d="M0 0 C5.31796344 2.46976579 8.33264184 5.42498824 11.0859375 10.65625 C12.67331121 16.21205798 12.21235916 20.0479723 9.5234375 25.09375 C7.77012375 28.15283496 6.85584312 29.26797958 3.8359375 31.28125 C3.6484375 28.40625 3.6484375 28.40625 3.8359375 25.28125 C4.8259375 24.62125 5.8159375 23.96125 6.8359375 23.28125 C7.85978894 20.03905377 8.1943828 17.45095571 6.8359375 14.28125 C5.8459375 13.95125 4.8559375 13.62125 3.8359375 13.28125 C2.8359375 11.61458333 1.8359375 9.94791667 0.8359375 8.28125 C-0.1540625 7.95125 -1.1440625 7.62125 -2.1640625 7.28125 C-2.1640625 6.62125 -2.1640625 5.96125 -2.1640625 5.28125 C-0.8440625 5.28125 0.4759375 5.28125 1.8359375 5.28125 C1.8359375 4.29125 1.8359375 3.30125 1.8359375 2.28125 C-0.05981501 2.25403824 -1.95568229 2.23475864 -3.8515625 2.21875 C-4.90730469 2.20714844 -5.96304688 2.19554688 -7.05078125 2.18359375 C-9.88816512 2.27259575 -12.4079544 2.63185162 -15.1640625 3.28125 C-10.79730245 -1.28399914 -6.00118482 -1.9931733 0 0 Z " fill="#048FE6" transform="translate(144.1640625,68.71875)"/>
<path d="M0 0 C0.66 0.33 1.32 0.66 2 1 C1.51789063 1.83402344 1.03578125 2.66804687 0.5390625 3.52734375 C-7.01600281 16.98769481 -9.24202423 30.19950029 -5.8125 45.4375 C-3.00322949 55.03584091 1.28297465 60.78126976 9 67 C10.35010281 68.31635024 11.69414946 69.63973902 13 71 C11.32700041 70.34938905 9.66140763 69.67966676 8 69 C7.36707031 68.74476563 6.73414062 68.48953125 6.08203125 68.2265625 C0.18220881 64.75086973 -4.48114173 57.29714567 -7 51 C-7 50.34 -7 49.68 -7 49 C-7.99 48.67 -8.98 48.34 -10 48 C-10.05859888 44.16673205 -10.09379643 40.33358112 -10.125 36.5 C-10.15013672 34.88351563 -10.15013672 34.88351563 -10.17578125 33.234375 C-10.2274865 24.75471376 -8.80440039 18.01257254 -6 10 C-6.66 9.67 -7.32 9.34 -8 9 C-7.34 9 -6.68 9 -6 9 C-5.67 8.01 -5.34 7.02 -5 6 C-3.68733482 4.64631404 -2.35432675 3.31200404 -1 2 C-0.67 1.34 -0.34 0.68 0 0 Z " fill="#29D0E3" transform="translate(67,154)"/>
<path d="M0 0 C0.66 0 1.32 0 2 0 C1.855625 1.12535156 1.71125 2.25070313 1.5625 3.41015625 C-0.77896004 22.41889546 0.03148984 39.40357626 5 58 C5.33595014 59.3326764 5.67036138 60.66574842 6 62 C5.34 62 4.68 62 4 62 C3.34 61.01 2.68 60.02 2 59 C1.01 59 0.02 59 -1 59 C-0.49396008 56.83125748 -0.00016187 55.00032373 1 53 C0.34 53 -0.32 53 -1 53 C-3.5539464 48.13512979 -3.25565129 43.45257491 -3.1953125 38.10546875 C-3.1924826 37.15811356 -3.18965271 36.21075836 -3.18673706 35.23469543 C-3.17557187 32.21883334 -3.15047389 29.20327184 -3.125 26.1875 C-3.11496547 24.13867617 -3.10584045 22.08984768 -3.09765625 20.04101562 C-3.07564449 15.02722852 -3.04113971 10.01366517 -3 5 C-2.34 5 -1.68 5 -1 5 C-0.67 3.35 -0.34 1.7 0 0 Z " fill="#14D4E9" transform="translate(35,117)"/>
<path d="M0 0 C7.75 0.75 7.75 0.75 10 3 C10.125 5.57421875 10.125 5.57421875 10 8.6875 C9.9051736 13.61254598 10.32312598 17.38859645 12 22 C10.02 21.67 8.04 21.34 6 21 C5.70996094 20.11248047 5.70996094 20.11248047 5.4140625 19.20703125 C3.7491571 14.1472778 3.7491571 14.1472778 1.8125 9.1875 C1 7 1 7 1 3 C0.34 2.67 -0.32 2.34 -1 2 C-0.67 1.34 -0.34 0.68 0 0 Z " fill="#04283C" transform="translate(149,147)"/>
<path d="M0 0 C34.54443089 0.88955616 34.54443089 0.88955616 43 3 C43.495 3.99 43.495 3.99 44 5 C41.70031945 6.4216207 40.50354023 7.07092116 37.78125 6.6875 C36.26041667 6.22916667 34.73958333 5.77083333 33.21875 5.3125 C30.46413389 4.9245259 29.38484477 5.67074226 27 7 C26.01 7 25.02 7 24 7 C24 6.34 24 5.68 24 5 C24.66 4.67 25.32 4.34 26 4 C26 3.34 26 2.68 26 2 C22.37 2.33 18.74 2.66 15 3 C14.67 3.99 14.34 4.98 14 6 C11.9375 6.6875 11.9375 6.6875 10 7 C10 6.34 10 5.68 10 5 C8.02 5 6.04 5 4 5 C3.67 4.34 3.34 3.68 3 3 C3.33 2.34 3.66 1.68 4 1 C2.68 0.67 1.36 0.34 0 0 Z " fill="#03A3F4" transform="translate(114,25)"/>
<path d="M0 0 C6.97537311 6.35989901 11.19938347 14.07324634 15.25 22.5 C15.76203979 23.54945801 15.76203979 23.54945801 16.28442383 24.62011719 C18.63003105 29.63699692 20.00381364 34.55757609 21 40 C20.34 40 19.68 40 19 40 C18.80664062 39.30132812 18.61328125 38.60265625 18.4140625 37.8828125 C18.15367187 36.97273438 17.89328125 36.06265625 17.625 35.125 C17.36976563 34.22007813 17.11453125 33.31515625 16.8515625 32.3828125 C16.1395685 29.85430274 16.1395685 29.85430274 14 28 C12.01643517 27.28591666 10.01684563 26.61382258 8 26 C8.33 25.01 8.66 24.02 9 23 C8.67 22.67 8.34 22.34 8 22 C7.84230651 20.58659906 7.72365444 19.16874478 7.625 17.75 C7.24011394 13.78125687 6.30724108 11.31038938 4 8 C4 7.34 4 6.68 4 6 C3.34 6 2.68 6 2 6 C1.34 4.02 0.68 2.04 0 0 Z " fill="#1495E8" transform="translate(224,69)"/>
<path d="M0 0 C2.43196698 2.43196698 3.10087247 4.52658465 4.3203125 7.7421875 C4.7740625 8.89074219 5.2278125 10.03929688 5.6953125 11.22265625 C6.64269682 13.64288668 7.57264959 16.07001859 8.484375 18.50390625 C11.24345395 25.91024546 11.24345395 25.91024546 17.1875 30.640625 C17.84363281 30.86008789 18.49976563 31.07955078 19.17578125 31.30566406 C23.40398515 32.9150072 25.46301951 36.90163081 27.375 40.8125 C28.39641359 46.02170928 28.23947259 50.96726495 25.4375 55.5625 C24.963125 56.036875 24.48875 56.51125 24 57 C24 55.68 24 54.36 24 53 C22.515 52.505 22.515 52.505 21 52 C22.485 51.505 22.485 51.505 24 51 C25.58543507 47.82912985 25.34065437 45.52009516 25 42 C23.43693605 37.78929712 21.46342084 34.82705103 17.51171875 32.59375 C15.76759746 31.80624516 13.99896426 31.07007656 12.20703125 30.3984375 C9.07393544 28.41321927 8.98511774 26.55446562 8 23 C7.37237142 21.45751429 6.72192139 19.92420902 6.0546875 18.3984375 C5.70019531 17.57859375 5.34570312 16.75875 4.98046875 15.9140625 C4.23938347 14.21192316 3.49454746 12.51141223 2.74609375 10.8125 C2.39417969 9.99523437 2.04226562 9.17796875 1.6796875 8.3359375 C1.35726074 7.59907715 1.03483398 6.8622168 0.70263672 6.10302734 C0 4 0 4 0 0 Z " fill="#27A2D9" transform="translate(165,111)"/>
<path d="M0 0 C2.97 0.495 2.97 0.495 6 1 C6 1.66 6 2.32 6 3 C5.34 3 4.68 3 4 3 C4 3.66 4 4.32 4 5 C4.66 5 5.32 5 6 5 C7.00696568 7.10084209 8.0053589 9.20579489 9 11.3125 C9.556875 12.48425781 10.11375 13.65601563 10.6875 14.86328125 C12 18 12 18 12 21 C12.66 21.33 13.32 21.66 14 22 C13.67 22.99 13.34 23.98 13 25 C7.22186374 21.14790916 4.40758991 17.52729068 2.1875 10.9375 C1.76855469 9.72964844 1.34960938 8.52179688 0.91796875 7.27734375 C0 4 0 4 0 0 Z " fill="#096B98" transform="translate(136,143)"/>
<path d="M0 0 C0.99 0.99 1.98 1.98 3 3 C2.34 5.31 1.68 7.62 1 10 C0.34 10 -0.32 10 -1 10 C-1.433125 11.2065625 -1.433125 11.2065625 -1.875 12.4375 C-3 15 -3 15 -5 16 C-5.33 16.99 -5.66 17.98 -6 19 C-7.32 19 -8.64 19 -10 19 C-10.99 16.03 -11.98 13.06 -13 10 C-11.783125 9.649375 -10.56625 9.29875 -9.3125 8.9375 C-4.39084718 7.13668209 -2.66118151 4.40758188 0 0 Z " fill="#072C48" transform="translate(154,92)"/>
<path d="M0 0 C7.875 0.875 7.875 0.875 9 2 C9.25 4.875 9.25 4.875 9 8 C8.484375 8.495 7.96875 8.99 7.4375 9.5 C6.963125 9.995 6.48875 10.49 6 11 C6.32882152 14.05636102 6.32882152 14.05636102 7 17 C6.67 17.66 6.34 18.32 6 19 C5.34 19 4.68 19 4 19 C3.67 18.34 3.34 17.68 3 17 C0.69034152 15.94647157 -1.6429774 14.94280904 -4 14 C-3.67 12.68 -3.34 11.36 -3 10 C-2.01 10 -1.02 10 0 10 C0 9.34 0 8.68 0 8 C-0.99 8 -1.98 8 -3 8 C-3 7.34 -3 6.68 -3 6 C-1.68 6 -0.36 6 1 6 C0.67 4.02 0.34 2.04 0 0 Z M3 2 C1.98888907 5.04913228 1.98888907 5.04913228 3 8 C4.65 7.67 6.3 7.34 8 7 C7.67 5.35 7.34 3.7 7 2 C5.68 2 4.36 2 3 2 Z " fill="#03ABF3" transform="translate(170,152)"/>
<path d="M0 0 C-2 3 -2 3 -4.9140625 3.73828125 C-6.75097656 4.02251953 -6.75097656 4.02251953 -8.625 4.3125 C-17.20289776 5.78426007 -24.94772295 8.78294195 -33 12 C-33.99 12.33 -34.98 12.66 -36 13 C-35 10 -35 10 -33.0390625 8.83203125 C-32.24242188 8.49558594 -31.44578125 8.15914062 -30.625 7.8125 C-29.83351563 7.46832031 -29.04203125 7.12414063 -28.2265625 6.76953125 C-26 6 -26 6 -23 6 C-23 4.68 -23 3.36 -23 2 C-18.78206202 0.00502933 -15.01213081 -0.40854045 -10.375 -0.6875 C-8.40660156 -0.81705078 -8.40660156 -0.81705078 -6.3984375 -0.94921875 C-3 -1 -3 -1 0 0 Z " fill="#19B5EB" transform="translate(123,42)"/>
<path d="M0 0 C0.55816406 0.72960937 1.11632813 1.45921875 1.69140625 2.2109375 C3.95222118 4.94227736 6.30013253 7.25990313 8.9375 9.625 C9.77152344 10.38039062 10.60554688 11.13578125 11.46484375 11.9140625 C13.94776849 14.06918074 13.94776849 14.06918074 16.81640625 15.6484375 C17.53699219 16.09445313 18.25757812 16.54046875 19 17 C19 17.66 19 18.32 19 19 C19.99 19.33 20.98 19.66 22 20 C17.375 22.125 17.375 22.125 14 21 C13.690625 20.175 13.38125 19.35 13.0625 18.5 C12.711875 17.675 12.36125 16.85 12 16 C10.12816413 15.15688424 10.12816413 15.15688424 8 15 C7.29875 14.79375 6.5975 14.5875 5.875 14.375 C3.91960301 13.7843899 3.91960301 13.7843899 2 15 C2 11.37 2 7.74 2 4 C1.01 4.33 0.02 4.66 -1 5 C-0.67 3.35 -0.34 1.7 0 0 Z " fill="#03CDEA" transform="translate(62,209)"/>
<path d="M0 0 C0.66 0.33 1.32 0.66 2 1 C1.52304688 1.556875 1.04609375 2.11375 0.5546875 2.6875 C-1.18470083 5.27473088 -1.56529961 6.92176578 -1.875 10 C-1.97554688 10.845625 -2.07609375 11.69125 -2.1796875 12.5625 C-1.95933134 15.55167921 -0.96732407 16.79822798 1 19 C0.67 19.66 0.34 20.32 0 21 C-0.34342449 22.33076989 -0.67619874 23.66431979 -1 25 C-1.33 25.99 -1.66 26.98 -2 28 C-2.66 28 -3.32 28 -4 28 C-4 29.32 -4 30.64 -4 32 C-4.66 32 -5.32 32 -6 32 C-7.62514468 33.45833358 -7.62514468 33.45833358 -9 35 C-8.55899159 32.42745095 -8.09102025 30.19609768 -6.98828125 27.8203125 C-5.51534761 23.61692085 -5.60789545 19.37766799 -5.52148438 14.97070312 C-5.28337352 8.84370429 -3.34205865 5.01308797 0 0 Z " fill="#04A8F1" transform="translate(127,72)"/>
<path d="M0 0 C-0.99 1.485 -0.99 1.485 -2 3 C-4.20703125 3.37109375 -4.20703125 3.37109375 -6.8125 3.4375 C-11.42646151 3.74376584 -13.61284637 4.71869492 -17 8 C-17.66 8 -18.32 8 -19 8 C-18.67 8.99 -18.34 9.98 -18 11 C-18.5775 11.04125 -19.155 11.0825 -19.75 11.125 C-23.11407813 12.43325261 -24.11103691 15.01421964 -26 18 C-26.99 18.66 -27.98 19.32 -29 20 C-29.99 19.67 -30.98 19.34 -32 19 C-24.48974985 10.00596183 -13.00646711 -3.16373524 0 0 Z " fill="#02C1EA" transform="translate(88,124)"/>
<path d="M0 0 C0.33 0.99 0.66 1.98 1 3 C6.55053286 2.25640327 6.55053286 2.25640327 12 1 C9.93243723 3.7972908 8.85559629 4.02692273 5.3125 4.6875 C4.219375 4.790625 3.12625 4.89375 2 5 C1.608125 6.2375 1.21625 7.475 0.8125 8.75 C-1.13881177 14.63207922 -3.56246179 20.30598782 -6 26 C-6.99 25.67 -7.98 25.34 -9 25 C-8.25 17.25 -8.25 17.25 -6 15 C-5.01 15 -4.02 15 -3 15 C-3 14.01 -3 13.02 -3 12 C-3.66 11.67 -4.32 11.34 -5 11 C-4.0409375 10.2265625 -4.0409375 10.2265625 -3.0625 9.4375 C-0.44208319 6.34064377 -0.30610183 3.97932377 0 0 Z " fill="#22ACE4" transform="translate(136,98)"/>
<path d="M0 0 C0.66 0 1.32 0 2 0 C3.68158146 3.66864051 4.24028871 6.49416047 4.1953125 10.51953125 C4.18886719 11.54111328 4.18242187 12.56269531 4.17578125 13.61523438 C4.15902344 14.67033203 4.14226562 15.72542969 4.125 16.8125 C4.11597656 17.88693359 4.10695312 18.96136719 4.09765625 20.06835938 C4.07415306 22.71246854 4.04129575 25.35611872 4 28 C3.01 27.67 2.02 27.34 1 27 C0.67 18.09 0.34 9.18 0 0 Z " fill="#0F9EE3" transform="translate(229,125)"/>
<path d="M0 0 C2.79540093 5.03172167 3.12463356 9.70231851 3.09765625 15.39453125 C3.09443359 16.59658203 3.09121094 17.79863281 3.08789062 19.03710938 C3.07951172 20.28298828 3.07113281 21.52886719 3.0625 22.8125 C3.05798828 24.07771484 3.05347656 25.34292969 3.04882812 26.64648438 C3.03706251 29.7643711 3.02062272 32.88216133 3 36 C2.01 36.495 2.01 36.495 1 37 C1.02320313 35.87980469 1.04640625 34.75960937 1.0703125 33.60546875 C1.08907237 32.13281916 1.10727234 30.66016237 1.125 29.1875 C1.14175781 28.44951172 1.15851563 27.71152344 1.17578125 26.95117188 C1.21074628 23.08753574 1.19397555 21.29096332 -1 18 C-0.34 18 0.32 18 1 18 C0.55296014 13.52116304 0.55296014 13.52116304 -2 10 C-2.66 10 -3.32 10 -4 10 C-4.33 9.01 -4.66 8.02 -5 7 C-4.01 7 -3.02 7 -2 7 C-1.34 4.69 -0.68 2.38 0 0 Z " fill="#1093EC" transform="translate(245,109)"/>
<path d="M0 0 C2.97 0.495 2.97 0.495 6 1 C5.67 2.98 5.34 4.96 5 7 C5.969375 7.144375 6.93875 7.28875 7.9375 7.4375 C11 8 11 8 12 9 C12.66 9 13.32 9 14 9 C14 10.98 14 12.96 14 15 C9.64352355 13.55049595 6.68242711 11.32252888 3.1875 8.375 C2.21167969 7.55773437 1.23585937 6.74046875 0.23046875 5.8984375 C-0.50558594 5.27195313 -1.24164063 4.64546875 -2 4 C-1.34 2.68 -0.68 1.36 0 0 Z " fill="#03CEE8" transform="translate(56,224)"/>
<path d="M0 0 C2.83515893 4.2527384 4.62457575 8.87087999 6.625 13.5625 C7.04523438 14.53380859 7.46546875 15.50511719 7.8984375 16.50585938 C8.29546875 17.43333984 8.6925 18.36082031 9.1015625 19.31640625 C9.46588379 20.16662354 9.83020508 21.01684082 10.20556641 21.89282227 C11 24 11 24 11 26 C11.66 26 12.32 26 13 26 C13.268125 25.43796875 13.53625 24.8759375 13.8125 24.296875 C15.0803979 21.84449354 16.48972342 19.56072317 18 17.25 C18.515625 16.45078125 19.03125 15.6515625 19.5625 14.828125 C20.036875 14.22484375 20.51125 13.6215625 21 13 C21.66 13 22.32 13 23 13 C21.6017971 17.02073891 19.70820245 19.98689637 17.0625 23.3125 C16.37285156 24.19550781 15.68320313 25.07851562 14.97265625 25.98828125 C13.99619141 26.98408203 13.99619141 26.98408203 13 28 C12.01 28 11.02 28 10 28 C8.89311656 25.50117273 7.78944889 23.00100271 6.6875 20.5 C6.37876953 19.80390625 6.07003906 19.1078125 5.75195312 18.390625 C0 5.3125 0 5.3125 0 0 Z " fill="#28ACDF" transform="translate(194,181)"/>
<path d="M0 0 C0.99 0 1.98 0 3 0 C2.67 2.31 2.34 4.62 2 7 C4.475 7.99 4.475 7.99 7 9 C6.814375 9.928125 6.62875 10.85625 6.4375 11.8125 C5.75876119 15.01343771 5.75876119 15.01343771 7 18 C6.0625 20.1875 6.0625 20.1875 5 22 C5.66 22.33 6.32 22.66 7 23 C6.67 23.99 6.34 24.98 6 26 C0.94464291 18.41696436 0.4494338 8.88019196 0 0 Z " fill="#02D1E9" transform="translate(17,152)"/>
<path d="M0 0 C1.32 0.33 2.64 0.66 4 1 C2.3690622 7.19756364 -0.16712845 12.34772043 -3.4375 17.8125 C-4.01262329 18.78135132 -4.01262329 18.78135132 -4.59936523 19.76977539 C-6.74831697 23.28303926 -8.91792684 26.21279489 -12 29 C-11.371219 25.29622151 -9.70083969 22.92469029 -7.5625 19.875 C-4.57022067 15.31330069 -3.07083322 11.58436059 -2.38671875 6.19140625 C-1.96945282 3.82689933 -1.16480287 2.08713656 0 0 Z " fill="#20A7E6" transform="translate(237,185)"/>
<path d="M0 0 C0.66 0 1.32 0 2 0 C3.23701317 1.4376099 4.46811442 2.88111329 5.65625 4.359375 C13.09011271 13.43560272 22.73128069 20.64365154 33 26.1875 C36 28 36 28 37 31 C26.31160606 27.22646351 17.04972809 18.73485777 9 11 C8.22140625 10.26136719 7.4428125 9.52273437 6.640625 8.76171875 C1.1433952 3.43018559 1.1433952 3.43018559 0 0 Z " fill="#33D7E3" transform="translate(41,215)"/>
<path d="M0 0 C5.31796344 2.46976579 8.33264184 5.42498824 11.0859375 10.65625 C12.02273258 13.93503277 11.96895415 16.88932544 11.8359375 20.28125 C11.5059375 20.28125 11.1759375 20.28125 10.8359375 20.28125 C10.7328125 19.53875 10.6296875 18.79625 10.5234375 18.03125 C9.78935857 15.0949343 8.69094073 13.62016712 6.8359375 11.28125 C6.8359375 10.62125 6.8359375 9.96125 6.8359375 9.28125 C5.8459375 8.95125 4.8559375 8.62125 3.8359375 8.28125 C4.4959375 8.28125 5.1559375 8.28125 5.8359375 8.28125 C5.09795673 5.22115385 5.09795673 5.22115385 2.8984375 3.59375 C-2.7399968 1.17727816 -9.28800465 1.71430124 -15.1640625 3.28125 C-10.79730245 -1.28399914 -6.00118482 -1.9931733 0 0 Z " fill="#2394D4" transform="translate(144.1640625,68.71875)"/>
<path d="M0 0 C1.8984375 0.70703125 1.8984375 0.70703125 4 2 C4.9765625 4.13671875 4.9765625 4.13671875 5.625 6.6875 C5.86089844 7.57566406 6.09679687 8.46382812 6.33984375 9.37890625 C6.55769531 10.24386719 6.77554688 11.10882813 7 12 C7.39083767 13.37642833 7.78589373 14.75167505 8.1875 16.125 C8.455625 17.07375 8.72375 18.0225 9 19 C8.34 19 7.68 19 7 19 C6.34 17.68 5.68 16.36 5 15 C4.01 15.33 3.02 15.66 2 16 C1 13 1 13 2 10 C1.34 10 0.68 10 0 10 C-1.125 3.375 -1.125 3.375 0 0 Z " fill="#059DEC" transform="translate(185,162)"/>
<path d="M0 0 C1.98 0 3.96 0 6 0 C6.12375 0.639375 6.2475 1.27875 6.375 1.9375 C6.684375 2.9584375 6.684375 2.9584375 7 4 C7.66 4.33 8.32 4.66 9 5 C8.48967606 8.77639718 7.79233071 10.44722581 5 13 C3.96387729 11.59447701 2.94655075 10.17508306 1.9375 8.75 C1.36902344 7.96109375 0.80054688 7.1721875 0.21484375 6.359375 C-1 4 -1 4 -0.68359375 1.703125 C-0.45800781 1.14109375 -0.23242188 0.5790625 0 0 Z " fill="#0499F8" transform="translate(209,73)"/>
<path d="M0 0 C0.66 0 1.32 0 2 0 C1.855625 1.04414062 1.71125 2.08828125 1.5625 3.1640625 C-0.0271522 15.4760746 -0.22701724 27.59787368 0 40 C-2.30088444 36.33473146 -2.30912189 33.09570961 -2.4140625 28.828125 C-2.44311172 27.8044986 -2.44311172 27.8044986 -2.4727478 26.76019287 C-2.53231098 24.59025392 -2.57883446 22.42026123 -2.625 20.25 C-2.66320131 18.77471703 -2.7022543 17.29945585 -2.7421875 15.82421875 C-2.83799235 12.21634582 -2.92210916 8.60830917 -3 5 C-2.34 5 -1.68 5 -1 5 C-0.67 3.35 -0.34 1.7 0 0 Z " fill="#2ECADA" transform="translate(35,117)"/>
<path d="M0 0 C1.90625 0.26171875 1.90625 0.26171875 4 1 C4.90625 2.64453125 4.90625 2.64453125 5.5 4.8125 C5.73332031 5.61171875 5.96664062 6.4109375 6.20703125 7.234375 C6.46871094 8.14703125 6.73039063 9.0596875 7 10 C7.72051479 12.19036497 8.44979707 14.37786395 9.1875 16.5625 C9.79166667 18.375 10.39583333 20.1875 11 22 C9.1328125 21.34765625 9.1328125 21.34765625 7 20 C5.8046875 17.43359375 5.8046875 17.43359375 4.875 14.4375 C4.29948245 12.60868596 3.68419923 10.79099209 3 9 C2.34 8.67 1.68 8.34 1 8 C0.40644386 5.35139573 0.25790731 2.70802678 0 0 Z " fill="#0490CE" transform="translate(132,142)"/>
<path d="M0 0 C0.99 0.33 1.98 0.66 3 1 C2.67 1.66 2.34 2.32 2 3 C3.88286447 8.67169605 7.01546088 13.85424289 10 19 C10.33 19.99 10.66 20.98 11 22 C12.87387216 22.80212628 12.87387216 22.80212628 15.0625 23.1875 C16.16271484 23.42533203 16.16271484 23.42533203 17.28515625 23.66796875 C18.13400391 23.83232422 18.13400391 23.83232422 19 24 C19 24.33 19 24.66 19 25 C17.56138706 24.91253716 16.12402492 24.80434652 14.6875 24.6875 C13.88699219 24.62949219 13.08648437 24.57148438 12.26171875 24.51171875 C9.54638088 23.89736769 8.6936662 23.18040898 7 21 C3.9095435 15.34173774 1.9145567 9.13528396 0 3 C-0.66 3 -1.32 3 -2 3 C-2 2.34 -2 1.68 -2 1 C-1.34 0.67 -0.68 0.34 0 0 Z " fill="#045A83" transform="translate(142,145)"/>
<path d="M0 0 C0.75 1.75 0.75 1.75 1 4 C-0.6875 5.9375 -0.6875 5.9375 -3 8 C-6.90308019 12.47706257 -8.56739085 16.26956338 -10 22 C-11.32 18.7 -12.64 15.4 -14 12 C-12.35 11.34 -10.7 10.68 -9 10 C-5.97803552 8.34367958 -5.97803552 8.34367958 -5.0625 6.125 C-3.78036743 3.56073486 -2.08327225 1.94438744 0 0 Z " fill="#1085C8" transform="translate(160,103)"/>
<path d="M0 0 C0.66 0 1.32 0 2 0 C2.6875 1.625 2.6875 1.625 3 4 C0.66666667 9.66666667 0.66666667 9.66666667 -2 11 C-2.268125 11.639375 -2.53625 12.27875 -2.8125 12.9375 C-4.3949602 15.68598351 -6.08523724 15.95367491 -9 17 C-9.33 17.66 -9.66 18.32 -10 19 C-10.99 18.01 -11.98 17.02 -13 16 C-12.0409375 15.5978125 -12.0409375 15.5978125 -11.0625 15.1875 C-8.66868314 14.11332248 -8.66868314 14.11332248 -8 11 C-7.01 10.67 -6.02 10.34 -5 10 C-3.66172696 8.33729713 -2.32810215 6.67083819 -1 5 C-0.34 5 0.32 5 1 5 C0.67 3.35 0.34 1.7 0 0 Z " fill="#076A9E" transform="translate(158,97)"/>
<path d="M0 0 C3.875 3.75 3.875 3.75 5 6 C5.33 5.34 5.66 4.68 6 4 C6.66 4 7.32 4 8 4 C8.12375 5.0725 8.2475 6.145 8.375 7.25 C8.75538342 10.78785013 8.75538342 10.78785013 10 12.84375 C11.30822683 15.66461411 11.4232622 18.15668707 11.625 21.25 C11.69976562 22.32765625 11.77453125 23.4053125 11.8515625 24.515625 C11.92503906 25.74539062 11.92503906 25.74539062 12 27 C9.61668898 22.43495153 7.67209568 17.66587395 5.65429688 12.93164062 C3.99751617 9.09696597 2.15830585 5.58397577 0 2 C0 1.34 0 0.68 0 0 Z " fill="#1FA6E6" transform="translate(215,88)"/>
<path d="M0 0 C0.33 0.99 0.66 1.98 1 3 C0.34 3.66 -0.32 4.32 -1 5 C-1.69748583 6.31747324 -2.36959957 7.64914193 -3 9 C-3 8.34 -3 7.68 -3 7 C-3.99 7.99 -4.98 8.98 -6 10 C-5.34 10.33 -4.68 10.66 -4 11 C-4.99 12.485 -4.99 12.485 -6 14 C-7.32 14 -8.64 14 -10 14 C-10.33 13.34 -10.66 12.68 -11 12 C-9.9609375 9.6875 -9.9609375 9.6875 -8.375 7 C-7.86710937 6.113125 -7.35921875 5.22625 -6.8359375 4.3125 C-4.74690905 1.6812131 -3.1770842 0.95420959 0 0 Z " fill="#03C5ED" transform="translate(41,74)"/>
<path d="M0 0 C6.5408484 2.13578723 9.80651299 5.63386617 14 11 C13.34 12.65 12.68 14.3 12 16 C10.0625 15.25 10.0625 15.25 8 14 C7.25 11.875 7.25 11.875 7 10 C7.66 10 8.32 10 9 10 C8.525625 9.525625 8.05125 9.05125 7.5625 8.5625 C6.70833333 7.70833333 5.85416667 6.85416667 5 6 C4.01 6.66 3.02 7.32 2 8 C1.34 7.01 0.68 6.02 0 5 C0.66 5 1.32 5 2 5 C1.34 3.35 0.68 1.7 0 0 Z " fill="#1499E8" transform="translate(210,56)"/>
<path d="M0 0 C0.8971875 0.5259375 0.8971875 0.5259375 1.8125 1.0625 C2.8025 0.4025 3.7925 -0.2575 4.8125 -0.9375 C7.47916667 0.39583333 10.14583333 1.72916667 12.8125 3.0625 C12.8125 3.7225 12.8125 4.3825 12.8125 5.0625 C13.4725 5.3925 14.1325 5.7225 14.8125 6.0625 C12.45734432 5.77757769 10.10360566 5.48475086 7.75 5.1875 C7.09322266 5.10886719 6.43644531 5.03023437 5.75976562 4.94921875 C1.2789808 4.37532513 -2.87101175 3.39842224 -7.1875 2.0625 C-4.72093412 -0.40406588 -3.34389711 -1.43309876 0 0 Z " fill="#03A6F3" transform="translate(151.1875,40.9375)"/>
<path d="M0 0 C0.33 0.66 0.66 1.32 1 2 C0.27148496 3.68883032 -0.46171526 5.37597701 -1.23046875 7.046875 C-2.37832713 9.96022114 -2.6838822 12.90204561 -3 16 C-3.66 16 -4.32 16 -5 16 C-5 17.65 -5 19.3 -5 21 C-5.33 21 -5.66 21 -6 21 C-6 18.03 -6 15.06 -6 12 C-5.34 12 -4.68 12 -4 12 C-4.515625 11.236875 -5.03125 10.47375 -5.5625 9.6875 C-6.036875 8.800625 -6.51125 7.91375 -7 7 C-6.67 6.01 -6.34 5.02 -6 4 C-5.34 4 -4.68 4 -4 4 C-3.67 3.01 -3.34 2.02 -3 1 C-2.01 0.67 -1.02 0.34 0 0 Z " fill="#03C8EB" transform="translate(40,101)"/>
<path d="M0 0 C6.09831682 5.56023005 10.68300083 12.44461301 14 20 C14 20.66 14 21.32 14 22 C12 22 12 22 10.375 20.5 C9.92125 20.005 9.4675 19.51 9 19 C8.67 19.99 8.34 20.98 8 22 C7.96261719 21.40832031 7.92523438 20.81664063 7.88671875 20.20703125 C7.48131892 15.33428431 6.85719103 12.09944801 4 8 C4 7.34 4 6.68 4 6 C3.34 6 2.68 6 2 6 C1.34 4.02 0.68 2.04 0 0 Z " fill="#1D9AE5" transform="translate(224,69)"/>
<path d="M0 0 C0.66 0.33 1.32 0.66 2 1 C1.67 1.66 1.34 2.32 1 3 C4.51033129 4.68630119 4.51033129 4.68630119 8.3125 4.625 C8.869375 4.41875 9.42625 4.2125 10 4 C8.33333333 5.66666667 6.66666667 7.33333333 5 9 C4.195625 9.8971875 4.195625 9.8971875 3.375 10.8125 C2 12 2 12 -1 12 C-1.33 12.99 -1.66 13.98 -2 15 C-2.33 14.34 -2.66 13.68 -3 13 C-2.67 12.01 -2.34 11.02 -2 10 C-1.34 9.67 -0.68 9.34 0 9 C0.33 8.01 0.66 7.02 1 6 C0.34 6 -0.32 6 -1 6 C-0.67 4.02 -0.34 2.04 0 0 Z " fill="#10C2EB" transform="translate(58,64)"/>
<path d="M0 0 C0.66 0 1.32 0 2 0 C1.49935407 4.68412561 0.33233905 7.51764775 -2.4375 11.3125 C-3.05496094 12.17488281 -3.67242187 13.03726563 -4.30859375 13.92578125 C-6 16 -6 16 -8 17 C-7.9278125 16.38511719 -7.855625 15.77023438 -7.78125 15.13671875 C-7.64203125 13.92435547 -7.64203125 13.92435547 -7.5 12.6875 C-7.4071875 11.88699219 -7.314375 11.08648437 -7.21875 10.26171875 C-6.95186537 7.88103445 -6.95186537 7.88103445 -7 5 C-6.01 5.33 -5.02 5.66 -4 6 C-3.67 5.01 -3.34 4.02 -3 3 C-2.34 3.66 -1.68 4.32 -1 5 C-0.67 3.35 -0.34 1.7 0 0 Z " fill="#03A1F4" transform="translate(232,195)"/>
<path d="M0 0 C0.66 0 1.32 0 2 0 C2.66 0.66 3.32 1.32 4 2 C4.66 2.33 5.32 2.66 6 3 C6.4140625 5.06640625 6.4140625 5.06640625 6.625 7.5625 C6.69976562 8.38878906 6.77453125 9.21507812 6.8515625 10.06640625 C6.90054688 10.70449219 6.94953125 11.34257812 7 12 C4 12 4 12 0 10 C0 6.7 0 3.4 0 0 Z " fill="#0299E7" transform="translate(178,142)"/>
<path d="M0 0 C0.66 0 1.32 0 2 0 C2.21914063 0.6290625 2.43828125 1.258125 2.6640625 1.90625 C6.54709384 12.38727768 11.92643372 18.5476862 21 25 C20.34 25.33 19.68 25.66 19 26 C10.53830878 20.68684505 3.8937499 13.31916445 0 4 C0 2.68 0 1.36 0 0 Z " fill="#30D8E5" transform="translate(59,199)"/>
<path d="M0 0 C0.33 0 0.66 0 1 0 C1.125 6.625 1.125 6.625 0 10 C-0.66 10 -1.32 10 -2 10 C-2.20625 11.0725 -2.4125 12.145 -2.625 13.25 C-4.2588343 17.70591174 -5.91110799 18.77777608 -10 21 C-10 16.57752426 -7.41214783 14.62397987 -4.62890625 11.3515625 C-2.86875427 8.81052775 -2.44134737 7.02423258 -2 4 C-0.9375 1.6875 -0.9375 1.6875 0 0 Z " fill="#04A4F3" transform="translate(219,187)"/>
<path d="M0 0 C3.35722493 3.66242719 4.16228789 7.20219426 5 12 C2.9130365 15.13044524 2.18533361 15.45559583 -1 17 C-2.70921589 18.5412312 -2.70921589 18.5412312 -4 20 C-4 18.68 -4 17.36 -4 16 C-3.34 16 -2.68 16 -2 16 C-1.855625 15.4225 -1.71125 14.845 -1.5625 14.25 C-1.22657259 12.90629038 -0.86134235 11.56862066 -0.4375 10.25 C0.22871543 6.82374921 0.05811653 3.48699202 0 0 Z " fill="#04ACF7" transform="translate(186,212)"/>
<path d="M0 0 C0.99 0 1.98 0 3 0 C3.33 2.64 3.66 5.28 4 8 C4.66 8 5.32 8 6 8 C10.06153846 14.4 10.06153846 14.4 9.75 17.4375 C9.5025 17.953125 9.255 18.46875 9 19 C8.01 18.67 7.02 18.34 6 18 C4.79409871 15.35053805 3.77048238 12.79925459 2.8125 10.0625 C2.40354492 8.9497168 2.40354492 8.9497168 1.98632812 7.81445312 C0 2.32342575 0 2.32342575 0 0 Z " fill="#0178B0" transform="translate(136,145)"/>
<path d="M0 0 C7.75 0.75 7.75 0.75 10 3 C9.67 3.99 9.34 4.98 9 6 C8.34 5.01 7.68 4.02 7 3 C6.01 3.495 6.01 3.495 5 4 C5 7.3 5 10.6 5 14 C1.65362035 10.65362035 1.65362035 10.65362035 1.4375 6.875 C1.293125 5.59625 1.14875 4.3175 1 3 C0.34 2.67 -0.32 2.34 -1 2 C-0.67 1.34 -0.34 0.68 0 0 Z " fill="#08374F" transform="translate(149,147)"/>
<path d="M0 0 C2.91031589 4.36547384 1.8703944 7.98525061 1 13 C-0.0625 16.125 -0.0625 16.125 -1 18 C-1.66 17.67 -2.32 17.34 -3 17 C-3.05449838 15.27119018 -3.09301688 13.54187288 -3.125 11.8125 C-3.14820313 10.84957031 -3.17140625 9.88664063 -3.1953125 8.89453125 C-2.97452391 5.62244439 -2.40318706 2.40318706 0 0 Z " fill="#0398F4" transform="translate(244,159)"/>
<path d="M0 0 C-1.32 0.33 -2.64 0.66 -4 1 C-4 1.99 -4 2.98 -4 4 C-5.6796875 5.5703125 -5.6796875 5.5703125 -7.875 7.125 C-8.59429687 7.64320313 -9.31359375 8.16140625 -10.0546875 8.6953125 C-12 10 -12 10 -14 11 C-14.3125 8.8125 -14.3125 8.8125 -14 6 C-10.29696091 1.31674468 -6.03472028 -2.01157343 0 0 Z " fill="#05C7ED" transform="translate(83,143)"/>
<path d="M0 0 C0.18153682 4.62918896 -0.15999957 7.77882254 -2 12 C-2.37593066 13.9924325 -2.71979545 15.9918674 -3 18 C-3.33 18 -3.66 18 -4 18 C-4.24878997 15.56305726 -4.47463404 13.12761611 -4.6875 10.6875 C-4.79674805 9.65206055 -4.79674805 9.65206055 -4.90820312 8.59570312 C-5.32835341 3.47975556 -5.32835341 3.47975556 -3.64453125 1.01953125 C-2 0 -2 0 0 0 Z " fill="#03C9E9" transform="translate(61,160)"/>
<path d="M0 0 C1.21065165 3.63195496 0.62784815 5.06531629 -0.4375 8.6875 C-0.72496094 9.68136719 -1.01242188 10.67523438 -1.30859375 11.69921875 C-1.53675781 12.45847656 -1.76492187 13.21773437 -2 14 C-2.66 14 -3.32 14 -4 14 C-4.33 17.63 -4.66 21.26 -5 25 C-5.33 25 -5.66 25 -6 25 C-6.80845759 16.03510357 -4.78451199 9.11498636 -1 1 C-0.67 0.67 -0.34 0.34 0 0 Z " fill="#25D8E7" transform="translate(48,154)"/>
<path d="M0 0 C0.66 0 1.32 0 2 0 C2.625 2.375 2.625 2.375 3 5 C2.34 5.66 1.68 6.32 1 7 C1.21130021 12.49380558 2.8277521 15.59978518 6 20 C6 20.66 6 21.32 6 22 C2.7289697 20.98485266 1.98141865 19.96748264 0.25 16.9375 C-1.8785123 11.40799522 -1.57785462 5.63701286 0 0 Z " fill="#29B9E5" transform="translate(159,149)"/>
<path d="M0 0 C1.65 0 3.3 0 5 0 C5 0.66 5 1.32 5 2 C7.97 2.495 7.97 2.495 11 3 C11.33 5.97 11.66 8.94 12 12 C11.319375 11.29875 10.63875 10.5975 9.9375 9.875 C7.22379838 7.14570239 4.31945276 4.68645559 1.35546875 2.234375 C0.90816406 1.82703125 0.46085938 1.4196875 0 1 C0 0.67 0 0.34 0 0 Z " fill="#1AA8E7" transform="translate(195,66)"/>
<path d="M0 0 C9.41002278 0.96355353 9.41002278 0.96355353 14 2 C14 3.32 14 4.64 14 6 C8.33895411 5.50341703 4.12325529 4.45489316 -1 2 C-0.67 1.34 -0.34 0.68 0 0 Z " fill="#02C9E3" transform="translate(90,248)"/>
<path d="M0 0 C1.65 0 3.3 0 5 0 C6.23076923 5.41538462 6.23076923 5.41538462 5.0625 8.375 C4.711875 8.91125 4.36125 9.4475 4 10 C3.34 10 2.68 10 2 10 C0.39644899 6.49223216 -0.22036864 3.85645121 0 0 Z " fill="#0397F7" transform="translate(226,105)"/>
<path d="M0 0 C0.99 0.99 1.98 1.98 3 3 C1.81858236 8.58488339 0.5322682 10.65475442 -4 14 C-5.39355764 15.95851344 -6.74282547 17.95127113 -8 20 C-8.66 19.67 -9.32 19.34 -10 19 C-8.6776206 16.99194239 -7.34460752 14.99313205 -6 13 C-5.56816406 12.35417969 -5.13632813 11.70835938 -4.69140625 11.04296875 C-3.51254215 9.32539524 -2.26051775 7.65857599 -1 6 C-0.34 6 0.32 6 1 6 C0.67 4.02 0.34 2.04 0 0 Z " fill="#0A94E0" transform="translate(160,101)"/>
<path d="M0 0 C0.99 0.99 1.98 1.98 3 3 C1.875 5.875 1.875 5.875 0 9 C-3.1875 10.375 -3.1875 10.375 -6 11 C-6.33 10.01 -6.66 9.02 -7 8 C-6.21625 7.236875 -5.4325 6.47375 -4.625 5.6875 C-1.92742283 3.09108195 -1.92742283 3.09108195 0 0 Z " fill="#031D33" transform="translate(154,92)"/>
<path d="M0 0 C0.66 0 1.32 0 2 0 C-0.05764921 6.45353615 -2.42383482 12.7361263 -5 19 C-5.33 19 -5.66 19 -6 19 C-6.28571429 10.42857143 -6.28571429 10.42857143 -4 7 C-3.34 7 -2.68 7 -2 7 C-1.34 4.69 -0.68 2.38 0 0 Z " fill="#27C4E1" transform="translate(113,158)"/>
<path d="M0 0 C5.75 1.875 5.75 1.875 8 3 C7.34 4.32 6.68 5.64 6 7 C3.69 7 1.38 7 -1 7 C-0.67 4.69 -0.34 2.38 0 0 Z " fill="#03CCEB" transform="translate(90,232)"/>
<path d="M0 0 C0.66 0.33 1.32 0.66 2 1 C2.09965503 4.48792595 2.05570512 7.6569338 1 11 C-1.0625 12.8125 -1.0625 12.8125 -3 14 C-3.125 7.375 -3.125 7.375 -2 4 C-1.34 4 -0.68 4 0 4 C0 2.68 0 1.36 0 0 Z " fill="#03CCEB" transform="translate(46,164)"/>
<path d="M0 0 C0.66 0.33 1.32 0.66 2 1 C1.52949219 1.51046875 1.05898437 2.0209375 0.57421875 2.546875 C-1.48616842 5.75760241 -1.73347307 8.47808397 -2.1875 12.25 C-2.34605469 13.51328125 -2.50460938 14.7765625 -2.66796875 16.078125 C-2.77753906 17.04234375 -2.88710937 18.0065625 -3 19 C-3.66 19 -4.32 19 -5 19 C-5.41982601 11.13214954 -4.42422692 6.63634038 0 0 Z " fill="#1FA7DF" transform="translate(127,72)"/>
<path d="M0 0 C0.66 0.66 1.32 1.32 2 2 C0.75 5.4375 0.75 5.4375 -1 9 C-3.1875 9.9375 -3.1875 9.9375 -5 10 C-5 9.34 -5 8.68 -5 8 C-5.66 8 -6.32 8 -7 8 C-6.67 6.68 -6.34 5.36 -6 4 C-5.67 4.66 -5.34 5.32 -5 6 C-3.68 5.67 -2.36 5.34 -1 5 C-1 4.01 -1 3.02 -1 2 C-2.65 1.67 -4.3 1.34 -6 1 C-6.33 1.66 -6.66 2.32 -7 3 C-7 2.01 -7 1.02 -7 0 C-4.29393021 -1.35303489 -2.8671629 -0.7884698 0 0 Z " fill="#20A2E0" transform="translate(142,82)"/>
<path d="M0 0 C3 1 3 1 4.6875 4.125 C6.14581407 7.79357134 6.24159551 11.05393993 6 15 C5.67 15 5.34 15 5 15 C4.896875 14.2575 4.79375 13.515 4.6875 12.75 C3.95342107 9.8136843 2.85500323 8.33891712 1 6 C1 5.34 1 4.68 1 4 C0.01 3.67 -0.98 3.34 -2 3 C-1.34 3 -0.68 3 0 3 C0 2.01 0 1.02 0 0 Z " fill="#178ED5" transform="translate(150,74)"/>
<path d="M0 0 C7.875 0.875 7.875 0.875 9 2 C9.125 5 9.125 5 9 8 C8 9 8 9 5 9.125 C2 9 2 9 1 8 C0.54540142 5.34536879 0.29756762 2.67810862 0 0 Z M3 2 C1.98888907 5.04913228 1.98888907 5.04913228 3 8 C4.65 7.67 6.3 7.34 8 7 C7.67 5.35 7.34 3.7 7 2 C5.68 2 4.36 2 3 2 Z " fill="#1EACDE" transform="translate(170,152)"/>
<path d="M0 0 C0.99 0.33 1.98 0.66 3 1 C2.28714844 1.44730469 1.57429688 1.89460938 0.83984375 2.35546875 C-4.55668533 5.76189155 -9.85361125 9.22598158 -15 13 C-14.4375 10.1875 -14.4375 10.1875 -13 7 C-9.75 5.375 -9.75 5.375 -6 4 C-4.9275 3.2575 -3.855 2.515 -2.75 1.75 C-1.38875 0.88375 -1.38875 0.88375 0 0 Z " fill="#2CC6E4" transform="translate(83,55)"/>
<path d="M0 0 C1.79068573 2.6860286 2.66055791 4.6626589 3.625 7.6875 C3.88539063 8.49574219 4.14578125 9.30398437 4.4140625 10.13671875 C4.60742188 10.75160156 4.80078125 11.36648437 5 12 C4.34 12 3.68 12 3 12 C2.34 10.68 1.68 9.36 1 8 C0.01 8.33 -0.98 8.66 -2 9 C-2.33 8.01 -2.66 7.02 -3 6 C-2.67 5.34 -2.34 4.68 -2 4 C-1.34 4 -0.68 4 0 4 C0 2.68 0 1.36 0 0 Z " fill="#1BA8E4" transform="translate(189,169)"/>
<path d="M0 0 C0.66 0 1.32 0 2 0 C1.88590407 1.45922693 1.75834456 2.91740598 1.625 4.375 C1.55539063 5.18710938 1.48578125 5.99921875 1.4140625 6.8359375 C1 9 1 9 -1 11 C-1.66 10.67 -2.32 10.34 -3 10 C-2.25 2.25 -2.25 2.25 0 0 Z " fill="#12AEE8" transform="translate(130,113)"/>
<path d="M0 0 C1.32 0.66 2.64 1.32 4 2 C4 5.3 4 8.6 4 12 C3.34 12 2.68 12 2 12 C1.32741333 9.66836622 0.66152556 7.3347961 0 5 C-0.226875 4.21625 -0.45375 3.4325 -0.6875 2.625 C-0.790625 2.08875 -0.89375 1.5525 -1 1 C-0.67 0.67 -0.34 0.34 0 0 Z " fill="#04192A" transform="translate(154,149)"/>
<path d="M0 0 C0.33 0.66 0.66 1.32 1 2 C0.505 2.639375 0.01 3.27875 -0.5 3.9375 C-2.09802862 5.70974339 -2.09802862 5.70974339 -2 7 C-2 7.99 -2 8.98 -2 10 C-3.32 10.33 -4.64 10.66 -6 11 C-6.33 10.34 -6.66 9.68 -7 9 C-6.34 9 -5.68 9 -5 9 C-5.37125 8.13375 -5.37125 8.13375 -5.75 7.25 C-5.8325 6.5075 -5.915 5.765 -6 5 C-4.14944202 2.76656796 -2.59616917 1.29808458 0 0 Z " fill="#02A7F3" transform="translate(135,103)"/>
<path d="M0 0 C0.99 0.33 1.98 0.66 3 1 C3 1.66 3 2.32 3 3 C5.475 3.99 5.475 3.99 8 5 C7.6875 6.9375 7.6875 6.9375 7 9 C6.01 9.33 5.02 9.66 4 10 C2.68 6.7 1.36 3.4 0 0 Z " fill="#01D2E7" transform="translate(23,181)"/>
<path d="M0 0 C1.125 1.6875 1.125 1.6875 2 4 C1.4375 6.625 1.4375 6.625 0 9 C-2.625 10.3125 -2.625 10.3125 -5 11 C-5.66 10.34 -6.32 9.68 -7 9 C-6.401875 8.443125 -5.80375 7.88625 -5.1875 7.3125 C-3.0136554 5.01443571 -1.53101917 2.75583451 0 0 Z " fill="#05C6E9" transform="translate(55,144)"/>
<path d="M0 0 C4.51617599 -0.07654536 8.59085217 -0.10228696 13 1 C12.01 1.33 11.02 1.66 10 2 C9.67 2.66 9.34 3.32 9 4 C6.4375 4.625 6.4375 4.625 4 5 C3.67 4.34 3.34 3.68 3 3 C3.33 2.34 3.66 1.68 4 1 C2.68 0.67 1.36 0.34 0 0 Z " fill="#12A5E7" transform="translate(114,25)"/>
<path d="M0 0 C2.52588702 2.36292656 3.88820837 3.66462511 5 7 C6.87387216 7.80212628 6.87387216 7.80212628 9.0625 8.1875 C9.79597656 8.34605469 10.52945313 8.50460938 11.28515625 8.66796875 C11.85105469 8.77753906 12.41695312 8.88710937 13 9 C13 9.33 13 9.66 13 10 C11.56138706 9.91253716 10.12402492 9.80434652 8.6875 9.6875 C7.88699219 9.62949219 7.08648437 9.57148438 6.26171875 9.51171875 C3.58492201 8.90608771 2.68140037 8.13250778 1 6 C-0.1875 3.3125 -0.1875 3.3125 -1 1 C-0.67 0.67 -0.34 0.34 0 0 Z " fill="#165E81" transform="translate(148,160)"/>
<path d="M0 0 C0.66 0 1.32 0 2 0 C1.40546697 9.59453303 1.40546697 9.59453303 -2 13 C-2 11.68 -2 10.36 -2 9 C-2.99 8.67 -3.98 8.34 -5 8 C-4.01 7.67 -3.02 7.34 -2 7 C-0.77030122 3.48809191 -0.77030122 3.48809191 0 0 Z " fill="#2299D3" transform="translate(191,155)"/>
<path d="M0 0 C0.66 0 1.32 0 2 0 C1.91253716 1.43861294 1.80434652 2.87597508 1.6875 4.3125 C1.62949219 5.11300781 1.57148437 5.91351563 1.51171875 6.73828125 C0.91793306 9.36272334 0.04219706 10.30820672 -2 12 C-3.04449911 8.86650268 -2.93423645 8.01031744 -2 5 C-1.67 5 -1.34 5 -1 5 C-0.67 3.35 -0.34 1.7 0 0 Z " fill="#21D0E8" transform="translate(35,117)"/>
<path d="M0 0 C0.66 0 1.32 0 2 0 C0.6062718 4.43458973 -1.60582235 6.87378374 -5 10 C-5 8.02 -5 6.04 -5 4 C-4.360625 3.71125 -3.72125 3.4225 -3.0625 3.125 C-0.84793921 2.17176549 -0.84793921 2.17176549 0 0 Z " fill="#1593D9" transform="translate(153,90)"/>
<path d="M0 0 C0 0.66 0 1.32 0 2 C-0.66 2 -1.32 2 -2 2 C-2.33 2.99 -2.66 3.98 -3 5 C-5.0625 5.6875 -5.0625 5.6875 -7 6 C-6.67 4.02 -6.34 2.04 -6 0 C-3 -1 -3 -1 0 0 Z " fill="#04A3F4" transform="translate(223,213)"/>
<path d="M0 0 C2 2 2 2 3 4 C3 3.34 3 2.68 3 2 C3.99 2.33 4.98 2.66 6 3 C6 4.98 6 6.96 6 9 C4.35 9.33 2.7 9.66 1 10 C0.67 6.7 0.34 3.4 0 0 Z " fill="#0DB2F9" transform="translate(186,209)"/>
<path d="M0 0 C0.66 0 1.32 0 2 0 C1.01 3.3 0.02 6.6 -1 10 C-0.01 10.66 0.98 11.32 2 12 C0.35 12 -1.3 12 -3 12 C-3.66 10.68 -4.32 9.36 -5 8 C-4.01 8 -3.02 8 -2 8 C-1.855625 7.236875 -1.71125 6.47375 -1.5625 5.6875 C-1 3 -1 3 0 0 Z " fill="#26B6E8" transform="translate(125,129)"/>
<path d="M0 0 C1.32 0.66 2.64 1.32 4 2 C4 2.99 4 3.98 4 5 C2.02 5.99 2.02 5.99 0 7 C-0.33 6.34 -0.66 5.68 -1 5 C-1.99 4.67 -2.98 4.34 -4 4 C-4 3.34 -4 2.68 -4 2 C-2.68 2 -1.36 2 0 2 C0 1.34 0 0.68 0 0 Z " fill="#038ADF" transform="translate(146,72)"/>
<path d="M0 0 C2 1 2 1 2.8515625 2.9609375 C3.10679687 3.75757813 3.36203125 4.55421875 3.625 5.375 C3.88539063 6.16648438 4.14578125 6.95796875 4.4140625 7.7734375 C5 10 5 10 5 13 C3.68 12.34 2.36 11.68 1 11 C1.020625 10.195625 1.04125 9.39125 1.0625 8.5625 C1.29633621 6.06645115 1.29633621 6.06645115 0 5 C-0.04063832 3.33382885 -0.042721 1.66611905 0 0 Z " fill="#01A0E6" transform="translate(134,150)"/>
<path d="M0 0 C1.32 0.33 2.64 0.66 4 1 C4.3449145 2.33038449 4.67516582 3.66457061 5 5 C5.309375 6.2684375 5.309375 6.2684375 5.625 7.5625 C6 10 6 10 5 13 C4.35004703 11.58521865 3.70521278 10.16808513 3.0625 8.75 C2.70285156 7.96109375 2.34320313 7.1721875 1.97265625 6.359375 C1.09966721 4.24176302 0.48661492 2.23330638 0 0 Z " fill="#07425E" transform="translate(145,145)"/>
<path d="M0 0 C0.66 0.33 1.32 0.66 2 1 C0.35 4.3 -1.3 7.6 -3 11 C-4 7 -4 7 -3 5 C-3.66 5 -4.32 5 -5 5 C-4.67 4.01 -4.34 3.02 -4 2 C-2.68 2 -1.36 2 0 2 C0 1.34 0 0.68 0 0 Z " fill="#20CCE1" transform="translate(47,90)"/>
<path d="M0 0 C5.98993047 -0.3152595 9.63560356 0.31780178 15 3 C11.34142468 4.31534494 8.91973519 3.65468309 5.25 2.5625 C4.26515625 2.27503906 3.2803125 1.98757812 2.265625 1.69140625 C1.51796875 1.46324219 0.7703125 1.23507813 0 1 C0 0.67 0 0.34 0 0 Z " fill="#2EB4E4" transform="translate(151,45)"/>
<path d="M0 0 C0.86625 0.4640625 0.86625 0.4640625 1.75 0.9375 C3.85026522 1.92929191 5.74951737 2.47488739 8 3 C8.66 3.33 9.32 3.66 10 4 C10 4.66 10 5.32 10 6 C10.66 6.33 11.32 6.66 12 7 C8.37 6.34 4.74 5.68 1 5 C0.67 3.35 0.34 1.7 0 0 Z " fill="#0BD2E7" transform="translate(77,242)"/>
<path d="M0 0 C3 3.625 3 3.625 3 7 C3.99 6.67 4.98 6.34 6 6 C6 8.31 6 10.62 6 13 C5.01 13.495 5.01 13.495 4 14 C3.32739649 12.23141309 2.66211605 10.46003984 2 8.6875 C1.62875 7.70136719 1.2575 6.71523437 0.875 5.69921875 C0 3 0 3 0 0 Z " fill="#02A4EA" transform="translate(184,201)"/>
<path d="M0 0 C0.33 0 0.66 0 1 0 C1.125 6.625 1.125 6.625 0 10 C-0.99 10.33 -1.98 10.66 -3 11 C-3.32434322 6.35108046 -2.776422 3.77593392 0 0 Z " fill="#13A5E2" transform="translate(219,187)"/>
<path d="M0 0 C-1.29017414 0.98113243 -2.58219106 1.95984199 -3.875 2.9375 C-4.59429687 3.48277344 -5.31359375 4.02804688 -6.0546875 4.58984375 C-8 6 -8 6 -10 7 C-10 5.35 -10 3.7 -10 2 C-3.375 -1.125 -3.375 -1.125 0 0 Z " fill="#26CAE1" transform="translate(79,147)"/>
<path d="M0 0 C2.96052484 3.36423277 3.92289822 6.69159287 5 11 C4.01 11.495 4.01 11.495 3 12 C1 11 1 11 0 8 C-0.12781786 5.32605036 -0.04391871 2.67904143 0 0 Z " fill="#08A6E4" transform="translate(186,212)"/>
<path d="M0 0 C0 0.33 0 0.66 0 1 C-3.63 1 -7.26 1 -11 1 C-11.33 0.34 -11.66 -0.32 -12 -1 C-7.48281619 -2.36884358 -4.41225737 -1.47075246 0 0 Z " fill="#11B8EB" transform="translate(128,158)"/>
<path d="M0 0 C2.375 0.25 2.375 0.25 5 1 C6.70397964 3.24615497 7.07042679 4.38376558 6.75 7.1875 C6 9 6 9 4 10 C4 7.36 4 4.72 4 2 C2.68 2 1.36 2 0 2 C0 1.34 0 0.68 0 0 Z " fill="#0390DA" transform="translate(180,143)"/>
<path d="M0 0 C0 3.10551666 -0.5393715 4.35261084 -2 7 C-2.66 7 -3.32 7 -4 7 C-4.33 7.66 -4.66 8.32 -5 9 C-5.99 8.01 -6.98 7.02 -8 6 C-7.360625 5.731875 -6.72125 5.46375 -6.0625 5.1875 C-3.66868314 4.11332248 -3.66868314 4.11332248 -3 1 C-2.01 0.67 -1.02 0.34 0 0 Z " fill="#055E8A" transform="translate(153,107)"/>
<path d="M0 0 C0.886875 -0.01417969 1.77375 -0.02835937 2.6875 -0.04296875 C5 0.1875 5 0.1875 7 2.1875 C3.30131555 2.94404909 0.60111016 3.38787005 -3 2.1875 C-3.7425 2.001875 -4.485 1.81625 -5.25 1.625 C-5.8275 1.480625 -6.405 1.33625 -7 1.1875 C-4.52224905 -0.05137548 -2.76346293 0.02008331 0 0 Z " fill="#0587DA" transform="translate(139,69.8125)"/>
<path d="M0 0 C0.66 0 1.32 0 2 0 C2 0.66 2 1.32 2 2 C2.66 2 3.32 2 4 2 C4.33 2.99 4.66 3.98 5 5 C5.66 5.66 6.32 6.32 7 7 C4.03 6.505 4.03 6.505 1 6 C0.67 4.02 0.34 2.04 0 0 Z " fill="#04394B" transform="translate(154,162)"/>
<path d="M0 0 C0.99 0.33 1.98 0.66 3 1 C3 3.97 3 6.94 3 10 C2.01 10.495 2.01 10.495 1 11 C-0.17571451 7.32589215 -0.07366746 3.83070817 0 0 Z " fill="#1699DA" transform="translate(229,153)"/>
<path d="M0 0 C2.86724686 0.57344937 3.8614515 0.8614515 6 3 C5.01 3.495 5.01 3.495 4 4 C3.01 5.485 3.01 5.485 2 7 C0.4375 4.625 0.4375 4.625 -1 2 C-0.67 1.34 -0.34 0.68 0 0 Z " fill="#049BF7" transform="translate(218,88)"/>
<path d="M0 0 C0.8125 1.6875 0.8125 1.6875 1 4 C-1.4375 6.75 -1.4375 6.75 -4 9 C-4.66 8.67 -5.32 8.34 -6 8 C-4.55746343 4.63408134 -2.66735273 2.48952921 0 0 Z " fill="#0180C8" transform="translate(160,103)"/>
<path d="M0 0 C0.66 0.33 1.32 0.66 2 1 C2.59355614 3.64860427 2.74209269 6.29197322 3 9 C1.68 8.67 0.36 8.34 -1 8 C-0.67 5.36 -0.34 2.72 0 0 Z " fill="#0393F3" transform="translate(241,103)"/>
<path d="M0 0 C2.875 -0.125 2.875 -0.125 6 0 C6.66 0.66 7.32 1.32 8 2 C7.67 2.66 7.34 3.32 7 4 C4.36 3.34 1.72 2.68 -1 2 C-0.67 1.34 -0.34 0.68 0 0 Z " fill="#05CAF2" transform="translate(96,249)"/>
<path d="M0 0 C0.66 0 1.32 0 2 0 C2.33 2.64 2.66 5.28 3 8 C0.53721199 6.768606 -0.42497687 5.21935077 -2 3 C-1.34 3 -0.68 3 0 3 C0 2.01 0 1.02 0 0 Z " fill="#12A5EF" transform="translate(162,106)"/>
<path d="M0 0 C0.33 0 0.66 0 1 0 C1 2.31 1 4.62 1 7 C-0.32 6.67 -1.64 6.34 -3 6 C-1.125 1.125 -1.125 1.125 0 0 Z " fill="#09ACED" transform="translate(188,166)"/>
<path d="M0 0 C0.66 0.33 1.32 0.66 2 1 C2 1.66 2 2.32 2 3 C2.66 3.33 3.32 3.66 4 4 C3.67 4.99 3.34 5.98 3 7 C0 5 0 5 -0.75 2.9375 C-0.8325 2.298125 -0.915 1.65875 -1 1 C-0.67 0.67 -0.34 0.34 0 0 Z " fill="#106FA0" transform="translate(146,161)"/>
<path d="M0 0 C0.99 0.33 1.98 0.66 3 1 C3.8125 2.875 3.8125 2.875 4 5 C3.01 6.485 3.01 6.485 2 8 C1.34 8 0.68 8 0 8 C0.185625 7.236875 0.37125 6.47375 0.5625 5.6875 C1.22819173 2.91032625 1.22819173 2.91032625 0 0 Z " fill="#11435E" transform="translate(155,92)"/>
<path d="M0 0 C0.66 0 1.32 0 2 0 C2.66 1.65 3.32 3.3 4 5 C3.01 5.495 3.01 5.495 2 6 C-0.125 5.0625 -0.125 5.0625 -2 4 C-1 1 -1 1 0 0 Z " fill="#0294F8" transform="translate(226,75)"/>
<path d="M0 0 C1.5625 1.25 1.5625 1.25 3 3 C2.6875 5.1875 2.6875 5.1875 2 7 C-1 5 -1 5 -1.6875 2.875 C-1.790625 2.25625 -1.89375 1.6375 -2 1 C-1.34 0.67 -0.68 0.34 0 0 Z " fill="#0596F5" transform="translate(219,65)"/>
<path d="M0 0 C3 3.75 3 3.75 3 6 C2.01 6 1.02 6 0 6 C0 5.34 0 4.68 0 4 C-0.99 3.67 -1.98 3.34 -3 3 C-2.01 2.01 -1.02 1.02 0 0 Z " fill="#04CDEB" transform="translate(59,203)"/>
<path d="M0 0 C0.33 0 0.66 0 1 0 C0.67 3.3 0.34 6.6 0 10 C-0.66 9.67 -1.32 9.34 -2 9 C-2.125 5.625 -2.125 5.625 -2 2 C-1.34 1.34 -0.68 0.68 0 0 Z " fill="#0ECCDC" transform="translate(59,193)"/>
<path d="M0 0 C0.33 0.66 0.66 1.32 1 2 C1.66 2 2.32 2 3 2 C2.67 3.32 2.34 4.64 2 6 C2.66 6.33 3.32 6.66 4 7 C3.67 7.99 3.34 8.98 3 10 C0.70366176 6.55549263 0.45983515 4.06187717 0 0 Z " fill="#02CFE3" transform="translate(20,168)"/>
<path d="M0 0 C0.66 0 1.32 0 2 0 C2.33 1.65 2.66 3.3 3 5 C2.01 5.66 1.02 6.32 0 7 C-1.04449911 3.86650268 -0.93423645 3.01031744 0 0 Z " fill="#17AFE7" transform="translate(159,149)"/>
<path d="M0 0 C0.33 0 0.66 0 1 0 C1 2.31 1 4.62 1 7 C0.34 7 -0.32 7 -1 7 C-1.33 7.66 -1.66 8.32 -2 9 C-2.125 5.625 -2.125 5.625 -2 2 C-1.34 1.34 -0.68 0.68 0 0 Z " fill="#0C94EA" transform="translate(154,83)"/>
<path d="M0 0 C2 3 2 3 1.625 5.1875 C1.41875 5.785625 1.2125 6.38375 1 7 C0.34 6.34 -0.32 5.68 -1 5 C-1.66 5 -2.32 5 -3 5 C-3.33 4.01 -3.66 3.02 -4 2 C-3.01 2 -2.02 2 -1 2 C-0.67 1.34 -0.34 0.68 0 0 Z " fill="#0192F5" transform="translate(244,114)"/>
</svg>
